<svg width="80" height="80" viewBox="0 0 80 80" fill="none" xmlns="http://www.w3.org/2000/svg">
<g id="classificacao-por-estrelas 1">
<g id="Group">
<g id="Layer 19">
<path id="Vector" d="M51.8562 38.5712C52.0806 38.7064 52.3418 38.7676 52.6029 38.7463C52.864 38.725 53.1118 38.6221 53.3113 38.4523C53.5108 38.2826 53.6519 38.0544 53.7147 37.8001C53.7775 37.5457 53.7588 37.2781 53.6612 37.035L48.9862 25.3512L59.58 15.935C59.7697 15.7667 59.9037 15.5446 59.9642 15.2983C60.0248 15.0521 60.009 14.7932 59.9189 14.5561C59.8288 14.319 59.6688 14.1149 59.46 13.971C59.2512 13.827 59.0036 13.7499 58.75 13.75H47.0225L41.125 1.94124C41.0095 1.74752 40.8457 1.58711 40.6496 1.47572C40.4535 1.36432 40.2318 1.30576 40.0062 1.30576C39.7807 1.30576 39.559 1.36432 39.3629 1.47572C39.1668 1.58711 39.003 1.74752 38.8875 1.94124L32.9775 13.75H21.25C20.9893 13.7498 20.7351 13.831 20.5228 13.9825C20.3106 14.1339 20.1511 14.3478 20.0665 14.5944C19.9819 14.841 19.9765 15.1079 20.0511 15.3577C20.1257 15.6074 20.2765 15.8277 20.4825 15.9875L31.015 24.1775L26.3262 37.0725C26.2377 37.3152 26.2266 37.5794 26.2945 37.8288C26.3623 38.0781 26.5057 38.3002 26.705 38.4647C26.9042 38.6291 27.1496 38.7278 27.4072 38.7471C27.6649 38.7664 27.9222 38.7054 28.1437 38.5725L40 31.4562L51.8562 38.5712ZM29.875 34.6137L33.67 24.1775C33.7607 23.929 33.7703 23.6581 33.6973 23.4038C33.6243 23.1496 33.4725 22.925 33.2637 22.7625L24.8925 16.25H33.75C33.9823 16.2501 34.21 16.1855 34.4076 16.0634C34.6052 15.9413 34.7649 15.7665 34.8687 15.5587L40 5.29499L45.125 15.5587C45.2293 15.7675 45.3899 15.9429 45.5888 16.065C45.7876 16.1872 46.0166 16.2513 46.25 16.25H55.4625L46.67 24.065C46.4773 24.2358 46.3421 24.462 46.2828 24.7126C46.2235 24.9632 46.243 25.2259 46.3387 25.465L49.9637 34.5187L40.6462 28.9262C40.4518 28.8094 40.2293 28.7477 40.0025 28.7477C39.7757 28.7477 39.5532 28.8094 39.3587 28.9262L29.875 34.6137Z" fill="#5500FF"/>
<path id="Vector_2" d="M24.4412 42.375C24.6152 42.4596 24.8065 42.5024 25 42.5C25.2068 42.5 25.4104 42.4486 25.5926 42.3505C25.7747 42.2525 25.9296 42.1107 26.0435 41.938C26.1573 41.7653 26.2265 41.5671 26.2449 41.361C26.2633 41.155 26.2302 40.9476 26.1487 40.7575L22.7 32.7113L28.4612 25.8C28.6133 25.6174 28.7102 25.3953 28.7405 25.1596C28.7709 24.9239 28.7334 24.6845 28.6325 24.4693C28.5316 24.2542 28.3715 24.0722 28.1709 23.9448C27.9704 23.8174 27.7376 23.7499 27.5 23.75H20.7675L16.0812 15.625C15.9716 15.4352 15.814 15.2775 15.6243 15.1678C15.4345 15.0581 15.2192 15.0002 15 15C14.7806 15 14.565 15.0578 14.375 15.1675C14.185 15.2772 14.0272 15.435 13.9175 15.625L9.27874 23.75H2.49999C2.26236 23.7499 2.02962 23.8174 1.82904 23.9448C1.62845 24.0722 1.46833 24.2542 1.36745 24.4693C1.26657 24.6845 1.2291 24.9239 1.25944 25.1596C1.28977 25.3953 1.38666 25.6174 1.53874 25.8L7.29999 32.7113L3.85124 40.7575C3.74812 40.9931 3.7202 41.2549 3.77129 41.5069C3.82239 41.759 3.95001 41.9892 4.13674 42.1661C4.32347 42.343 4.56023 42.458 4.81472 42.4954C5.0692 42.5328 5.32902 42.4907 5.55874 42.375L15 37.6475L24.4412 42.375ZM7.49249 38.6063L9.89874 32.9925C9.98969 32.7807 10.0203 32.5479 9.98722 32.3198C9.95413 32.0917 9.85861 31.8772 9.71124 31.7L5.16874 26.25H9.99999C10.2198 26.2504 10.4359 26.1929 10.6264 26.0831C10.8169 25.9734 10.9751 25.8154 11.085 25.625L15 18.7612L18.9637 25.625C19.0734 25.815 19.2312 25.9728 19.4213 26.0825C19.6113 26.1922 19.8268 26.25 20.0462 26.25H24.8312L20.2887 31.7C20.1414 31.8772 20.0459 32.0917 20.0128 32.3198C19.9797 32.5479 20.0103 32.7807 20.1012 32.9925L22.5075 38.6063L15.5587 35.1312C15.3852 35.0446 15.1939 34.9994 15 34.9994C14.806 34.9994 14.6147 35.0446 14.4412 35.1312L7.49249 38.6063ZM78.6312 24.47C78.5305 24.2549 78.3707 24.073 78.1703 23.9455C77.97 23.818 77.7375 23.7502 77.5 23.75H70.7675L66.0812 15.625C65.9716 15.4352 65.814 15.2775 65.6243 15.1678C65.4345 15.0581 65.2192 15.0002 65 15C64.7806 15 64.565 15.0578 64.375 15.1675C64.185 15.2772 64.0272 15.435 63.9175 15.625L59.2787 23.75H52.5C52.2624 23.7499 52.0296 23.8174 51.829 23.9448C51.6284 24.0722 51.4683 24.2542 51.3674 24.4693C51.2666 24.6845 51.2291 24.9239 51.2594 25.1596C51.2898 25.3953 51.3867 25.6174 51.5387 25.8L57.3 32.7113L53.8512 40.7575C53.7481 40.9931 53.7202 41.2549 53.7713 41.5069C53.8224 41.759 53.95 41.9892 54.1367 42.1661C54.3235 42.343 54.5602 42.458 54.8147 42.4954C55.0692 42.5328 55.329 42.4907 55.5587 42.375L65 37.6475L74.4412 42.375C74.6152 42.4596 74.8065 42.5024 75 42.5C75.2068 42.5 75.4105 42.4486 75.5926 42.3505C75.7747 42.2525 75.9296 42.1107 76.0435 41.938C76.1573 41.7653 76.2265 41.5671 76.2449 41.361C76.2633 41.155 76.2302 40.9476 76.1487 40.7575L72.7 32.7113L78.4612 25.8C78.613 25.6173 78.7095 25.3953 78.7397 25.1597C78.7698 24.9242 78.7322 24.6849 78.6312 24.47ZM70.2887 31.7C70.1414 31.8772 70.0459 32.0917 70.0128 32.3198C69.9797 32.5479 70.0103 32.7807 70.1012 32.9925L72.5075 38.6063L65.5587 35.1312C65.3852 35.0446 65.1939 34.9994 65 34.9994C64.806 34.9994 64.6147 35.0446 64.4412 35.1312L57.4925 38.6063L59.8987 32.9925C59.9897 32.7807 60.0203 32.5479 59.9872 32.3198C59.9541 32.0917 59.8586 31.8772 59.7112 31.7L55.1687 26.25H60C60.2198 26.2504 60.4359 26.1929 60.6264 26.0831C60.8169 25.9734 60.9751 25.8154 61.085 25.625L65 18.7612L68.9637 25.625C69.0734 25.815 69.2312 25.9728 69.4213 26.0825C69.6113 26.1922 69.8268 26.25 70.0462 26.25H74.8312L70.2887 31.7ZM23.75 58.75H11.25C10.2554 58.75 9.3016 59.1451 8.59834 59.8484C7.89508 60.5516 7.49999 61.5054 7.49999 62.5V75C7.49999 75.9946 7.89508 76.9484 8.59834 77.6516C9.3016 78.3549 10.2554 78.75 11.25 78.75H23.75C24.7446 78.75 25.6984 78.3549 26.4016 77.6516C27.1049 76.9484 27.5 75.9946 27.5 75V62.5C27.5 61.5054 27.1049 60.5516 26.4016 59.8484C25.6984 59.1451 24.7446 58.75 23.75 58.75ZM25 75C25 75.3315 24.8683 75.6495 24.6339 75.8839C24.3995 76.1183 24.0815 76.25 23.75 76.25H11.25C10.9185 76.25 10.6005 76.1183 10.3661 75.8839C10.1317 75.6495 9.99999 75.3315 9.99999 75V62.5C9.99999 62.1685 10.1317 61.8505 10.3661 61.6161C10.6005 61.3817 10.9185 61.25 11.25 61.25H23.75C24.0815 61.25 24.3995 61.3817 24.6339 61.6161C24.8683 61.8505 25 62.1685 25 62.5V75ZM68.75 58.75H56.25C55.2554 58.75 54.3016 59.1451 53.5983 59.8484C52.8951 60.5516 52.5 61.5054 52.5 62.5V75C52.5 75.9946 52.8951 76.9484 53.5983 77.6516C54.3016 78.3549 55.2554 78.75 56.25 78.75H68.75C69.7446 78.75 70.6984 78.3549 71.4016 77.6516C72.1049 76.9484 72.5 75.9946 72.5 75V62.5C72.5 61.5054 72.1049 60.5516 71.4016 59.8484C70.6984 59.1451 69.7446 58.75 68.75 58.75ZM70 75C70 75.3315 69.8683 75.6495 69.6339 75.8839C69.3995 76.1183 69.0815 76.25 68.75 76.25H56.25C55.9185 76.25 55.6005 76.1183 55.3661 75.8839C55.1317 75.6495 55 75.3315 55 75V62.5C55 62.1685 55.1317 61.8505 55.3661 61.6161C55.6005 61.3817 55.9185 61.25 56.25 61.25H68.75C69.0815 61.25 69.3995 61.3817 69.6339 61.6161C69.8683 61.8505 70 62.1685 70 62.5V75Z" fill="#5500FF"/>
<path id="Vector_3" d="M54.6338 57.1337L52.8662 55.3662L48.6163 59.6162C47.9525 59.0606 47.1156 58.7543 46.25 58.75H33.75C32.7554 58.75 31.8016 59.1451 31.0983 59.8483C30.3951 60.5516 30 61.5054 30 62.5V75C30 75.9946 30.3951 76.9484 31.0983 77.6516C31.8016 78.3549 32.7554 78.75 33.75 78.75H46.25C47.2446 78.75 48.1984 78.3549 48.9016 77.6516C49.6049 76.9484 50 75.9946 50 75V62.5C49.9973 62.2768 49.9747 62.0542 49.9325 61.835L54.6338 57.1337ZM47.5 75C47.5 75.3315 47.3683 75.6495 47.1339 75.8839C46.8995 76.1183 46.5815 76.25 46.25 76.25H33.75C33.4185 76.25 33.1005 76.1183 32.8661 75.8839C32.6317 75.6495 32.5 75.3315 32.5 75V62.5C32.5 62.1685 32.6317 61.8505 32.8661 61.6161C33.1005 61.3817 33.4185 61.25 33.75 61.25H46.25C46.4518 61.254 46.6493 61.3082 46.825 61.4075L40 68.2325L37.1338 65.3662L35.3662 67.1337L39.1162 70.8837C39.3507 71.1181 39.6685 71.2497 40 71.2497C40.3315 71.2497 40.6493 71.1181 40.8838 70.8837L47.5 64.2675V75Z" fill="#5500FF"/>
</g>
</g>
</g>
</svg>
