<svg xmlns="http://www.w3.org/2000/svg" viewBox="0 0 267.58 224.32"><defs><style>.cls-1{fill:#b9f;}.cls-2{fill:#fff;}.cls-3{fill:#50f;}.cls-4{fill:#dfd6f8;}.cls-5{fill:#f6f5f6;}</style></defs><g id="Camada_2" data-name="Camada 2"><g id="Camada_1-2" data-name="Camada 1"><circle class="cls-1" cx="120.48" cy="112.16" r="112.16"/><rect class="cls-2" x="111.89" y="67.8" width="154.69" height="100.92" rx="4.97"/><path class="cls-3" d="M261.61,169.72H116.86a6,6,0,0,1-6-6v-91a6,6,0,0,1,6-6H261.61a6,6,0,0,1,6,6v91A6,6,0,0,1,261.61,169.72ZM116.86,68.8a4,4,0,0,0-4,4v91a4,4,0,0,0,4,4H261.61a4,4,0,0,0,4-4v-91a4,4,0,0,0-4-4Z"/><path class="cls-4" d="M121.3,82.67a6,6,0,0,1,0-11.92H257.17a6,6,0,0,1,0,11.92Z"/><path class="cls-4" d="M167.29,165.64H118a2.67,2.67,0,0,1-2.66-2.67V156.6a2.67,2.67,0,0,1,2.66-2.67h49.28A2.68,2.68,0,0,1,170,156.6V163A2.68,2.68,0,0,1,167.29,165.64ZM118,155a1.57,1.57,0,0,0-1.56,1.57V163a1.56,1.56,0,0,0,1.56,1.56h49.28a1.56,1.56,0,0,0,1.56-1.56V156.6a1.57,1.57,0,0,0-1.56-1.57Z"/><path class="cls-4" d="M260.46,97H175.74a2.68,2.68,0,0,1-2.67-2.67V88a2.68,2.68,0,0,1,2.67-2.68h84.72A2.67,2.67,0,0,1,263.12,88v6.36A2.67,2.67,0,0,1,260.46,97Zm-84.72-10.6A1.56,1.56,0,0,0,174.18,88v6.36a1.56,1.56,0,0,0,1.56,1.57h84.72A1.56,1.56,0,0,0,262,94.37V88a1.56,1.56,0,0,0-1.56-1.57Z"/><path class="cls-4" d="M228.54,111.9h-52.8a2.68,2.68,0,0,1-2.67-2.68v-6.36a2.68,2.68,0,0,1,2.67-2.68h52.8a2.67,2.67,0,0,1,2.66,2.68v6.36A2.67,2.67,0,0,1,228.54,111.9Zm-52.8-10.61a1.56,1.56,0,0,0-1.56,1.57v6.36a1.56,1.56,0,0,0,1.56,1.57h52.8a1.56,1.56,0,0,0,1.56-1.57v-6.36a1.56,1.56,0,0,0-1.56-1.57Z"/><path class="cls-4" d="M260.46,150.79H175.74a2.68,2.68,0,0,1-2.67-2.68v-30.4a2.68,2.68,0,0,1,2.67-2.68h84.72a2.67,2.67,0,0,1,2.66,2.68v30.4A2.67,2.67,0,0,1,260.46,150.79Zm-84.72-34.65a1.56,1.56,0,0,0-1.56,1.57v30.4a1.56,1.56,0,0,0,1.56,1.57h84.72a1.56,1.56,0,0,0,1.56-1.57v-30.4a1.56,1.56,0,0,0-1.56-1.57Z"/><path class="cls-4" d="M220.09,165.64H175.74a2.68,2.68,0,0,1-2.67-2.67V156.6a2.68,2.68,0,0,1,2.67-2.67h44.35a2.68,2.68,0,0,1,2.67,2.67V163A2.68,2.68,0,0,1,220.09,165.64ZM175.74,155a1.57,1.57,0,0,0-1.56,1.57V163a1.56,1.56,0,0,0,1.56,1.56h44.35a1.56,1.56,0,0,0,1.56-1.56V156.6a1.57,1.57,0,0,0-1.56-1.57Z"/><path class="cls-4" d="M260.46,165.64H228.54a2.68,2.68,0,0,1-2.67-2.67V156.6a2.68,2.68,0,0,1,2.67-2.67h31.92a2.67,2.67,0,0,1,2.66,2.67V163A2.67,2.67,0,0,1,260.46,165.64ZM228.54,155A1.57,1.57,0,0,0,227,156.6V163a1.56,1.56,0,0,0,1.56,1.56h31.92A1.56,1.56,0,0,0,262,163V156.6a1.57,1.57,0,0,0-1.56-1.57Z"/><path class="cls-4" d="M260.46,111.9H237a2.68,2.68,0,0,1-2.67-2.68v-6.36a2.68,2.68,0,0,1,2.67-2.68h23.47a2.67,2.67,0,0,1,2.66,2.68v6.36A2.67,2.67,0,0,1,260.46,111.9ZM237,101.29a1.56,1.56,0,0,0-1.56,1.57v6.36a1.56,1.56,0,0,0,1.56,1.57h23.47a1.56,1.56,0,0,0,1.56-1.57v-6.36a1.56,1.56,0,0,0-1.56-1.57Z"/><path class="cls-1" d="M177.6,91.62h0a.92.92,0,0,0,1,1h3.57a.92.92,0,0,0,.95-1h0a.92.92,0,0,0-.95-1h-3.57A.92.92,0,0,0,177.6,91.62Zm3.46,0h0a.92.92,0,0,0,.94,1h3.58a.92.92,0,0,0,.94-1h0a.92.92,0,0,0-.94-1H182A.92.92,0,0,0,181.06,91.62Zm3.46,0h0a.92.92,0,0,0,.94,1H189a.92.92,0,0,0,.95-1h0a.92.92,0,0,0-.95-1h-3.57A.92.92,0,0,0,184.52,91.62Zm3.45,0h0a.92.92,0,0,0,.95,1h3.57a.92.92,0,0,0,.95-1h0a.92.92,0,0,0-.95-1h-3.57A.92.92,0,0,0,188,91.62Zm3.46,0h0a.92.92,0,0,0,.94,1h1.83a.92.92,0,0,0,.94-1h0a.92.92,0,0,0-.94-1h-1.83A.92.92,0,0,0,191.43,91.62Zm5.41,0h0a.92.92,0,0,0,.94,1h3.58a.92.92,0,0,0,.94-1h0a.92.92,0,0,0-.94-1h-3.58A.92.92,0,0,0,196.84,91.62Zm3.46,0h0a.91.91,0,0,0,.94,1h3.57a.92.92,0,0,0,.95-1h0a.92.92,0,0,0-.95-1h-3.57A.91.91,0,0,0,200.3,91.62Zm3.45,0h0a.92.92,0,0,0,.95,1h3.57a.92.92,0,0,0,.94-1h0a.92.92,0,0,0-.94-1H204.7A.92.92,0,0,0,203.75,91.62Zm3.46,0h0a.92.92,0,0,0,.94,1h3.58a.92.92,0,0,0,.94-1h0a.92.92,0,0,0-.94-1h-3.58A.92.92,0,0,0,207.21,91.62Zm3.45,0h0a.92.92,0,0,0,1,1h1.82a.92.92,0,0,0,.95-1h0a.92.92,0,0,0-.95-1h-1.82A.92.92,0,0,0,210.66,91.62Zm1.72,0h0a.92.92,0,0,0,.94,1h1.83a.92.92,0,0,0,.94-1h0a.92.92,0,0,0-.94-1h-1.83A.92.92,0,0,0,212.38,91.62Zm1.71,0h0a.92.92,0,0,0,.94,1h3.58a.92.92,0,0,0,.94-1h0a.92.92,0,0,0-.94-1H215A.92.92,0,0,0,214.09,91.62Zm7.15,0h0a.92.92,0,0,0,.95,1h3.57a.92.92,0,0,0,.94-1h0a.92.92,0,0,0-.94-1h-3.57A.92.92,0,0,0,221.24,91.62Zm3.46,0h0a.92.92,0,0,0,.94,1h3.58a.92.92,0,0,0,.94-1h0a.92.92,0,0,0-.94-1h-3.58A.92.92,0,0,0,224.7,91.62Zm7.15,0h0a.92.92,0,0,0,1,1h3.57a.92.92,0,0,0,.94-1h0a.92.92,0,0,0-.94-1H232.8A.92.92,0,0,0,231.85,91.62Zm3.46,0h0a.92.92,0,0,0,.94,1h3.58a.92.92,0,0,0,.94-1h0a.92.92,0,0,0-.94-1h-3.58A.92.92,0,0,0,235.31,91.62Zm3.46,0h0a.91.91,0,0,0,.94,1h3.57a.92.92,0,0,0,.95-1h0a.92.92,0,0,0-.95-1h-3.57A.91.91,0,0,0,238.77,91.62Zm3.45,0h0a.92.92,0,0,0,.95,1H245a.91.91,0,0,0,.94-1h0a.91.91,0,0,0-.94-1h-1.82A.92.92,0,0,0,242.22,91.62Zm1.71,0h0a.92.92,0,0,0,.95,1h3.57a.91.91,0,0,0,.94-1h0a.91.91,0,0,0-.94-1h-3.57A.92.92,0,0,0,243.93,91.62Z"/><path class="cls-1" d="M177.6,106.47h0a.92.92,0,0,0,1,1h3.57a.92.92,0,0,0,.95-1h0a.92.92,0,0,0-.95-1h-3.57A.92.92,0,0,0,177.6,106.47Zm3.46,0h0a.92.92,0,0,0,.94,1h3.58a.92.92,0,0,0,.94-1h0a.92.92,0,0,0-.94-1H182A.92.92,0,0,0,181.06,106.47Zm3.46,0h0a.92.92,0,0,0,.94,1H189a.92.92,0,0,0,.95-1h0a.92.92,0,0,0-.95-1h-3.57A.92.92,0,0,0,184.52,106.47Zm3.45,0h0a.92.92,0,0,0,.95,1h3.57a.92.92,0,0,0,.95-1h0a.92.92,0,0,0-.95-1h-3.57A.92.92,0,0,0,188,106.47Zm3.46,0h0a.92.92,0,0,0,.94,1H196a.92.92,0,0,0,.94-1h0a.92.92,0,0,0-.94-1h-3.58A.92.92,0,0,0,191.43,106.47Zm7.15,0h0a.92.92,0,0,0,.95,1h3.57a.92.92,0,0,0,1-1h0a.92.92,0,0,0-1-1h-3.57A.92.92,0,0,0,198.58,106.47Zm3.46,0h0a.92.92,0,0,0,1,1h3.57a.92.92,0,0,0,.94-1h0a.92.92,0,0,0-.94-1H203A.92.92,0,0,0,202,106.47Zm3.46,0h0a.92.92,0,0,0,.94,1H210a.92.92,0,0,0,1-1h0a.92.92,0,0,0-1-1h-3.57A.92.92,0,0,0,205.5,106.47Zm3.45,0h0a.92.92,0,0,0,1,1h1.82a.92.92,0,0,0,.95-1h0a.92.92,0,0,0-.95-1H209.9A.92.92,0,0,0,209,106.47Zm1.71,0h0a.92.92,0,0,0,1,1h3.57a.92.92,0,0,0,.95-1h0a.92.92,0,0,0-.95-1h-3.57A.92.92,0,0,0,210.66,106.47Zm3.46,0h0a.92.92,0,0,0,.95,1h3.57a.92.92,0,0,0,.94-1h0a.92.92,0,0,0-.94-1h-3.57A.92.92,0,0,0,214.12,106.47Zm3.46,0h0a.92.92,0,0,0,.94,1h3.58a.92.92,0,0,0,.94-1h0a.92.92,0,0,0-.94-1h-3.58A.92.92,0,0,0,217.58,106.47Zm3.45,0h0a.92.92,0,0,0,.95,1h1.82a.92.92,0,0,0,.95-1h0a.92.92,0,0,0-.95-1H222A.92.92,0,0,0,221,106.47Z"/><path class="cls-1" d="M177.6,125.56v0a.93.93,0,0,0,1,1h3.57a.93.93,0,0,0,.95-1v0a.92.92,0,0,0-.95-.94h-3.57A.92.92,0,0,0,177.6,125.56Zm3.46,0v0a.92.92,0,0,0,.94,1h3.58a.92.92,0,0,0,.94-1v0a.91.91,0,0,0-.94-.94H182A.91.91,0,0,0,181.06,125.56Zm3.46,0v0a.92.92,0,0,0,.94,1H189a.93.93,0,0,0,.95-1v0a.92.92,0,0,0-.95-.94h-3.57A.91.91,0,0,0,184.52,125.56Zm3.45,0v0a.93.93,0,0,0,.95,1h3.57a.93.93,0,0,0,.95-1v0a.92.92,0,0,0-.95-.94h-3.57A.92.92,0,0,0,188,125.56Zm7.16,0v0a.92.92,0,0,0,.94,1h3.58a.92.92,0,0,0,.94-1v0a.91.91,0,0,0-.94-.94h-3.58A.91.91,0,0,0,195.13,125.56Zm3.45,0v0a.93.93,0,0,0,.95,1h3.57a.93.93,0,0,0,1-1v0a.92.92,0,0,0-1-.94h-3.57A.92.92,0,0,0,198.58,125.56Zm7.16,0v0a.92.92,0,0,0,.94,1h3.58a.92.92,0,0,0,.94-1v0a.91.91,0,0,0-.94-.94h-3.58A.91.91,0,0,0,205.74,125.56Zm3.45,0v0a.93.93,0,0,0,.95,1h3.57a.93.93,0,0,0,.95-1v0a.92.92,0,0,0-.95-.94h-3.57A.92.92,0,0,0,209.19,125.56Zm3.46,0v0a.93.93,0,0,0,.95,1h1.82a.92.92,0,0,0,.94-1v0a.91.91,0,0,0-.94-.94H213.6A.92.92,0,0,0,212.65,125.56Zm5.41,0v0a.92.92,0,0,0,.94,1h3.58a.92.92,0,0,0,.94-1v0a.91.91,0,0,0-.94-.94H219A.91.91,0,0,0,218.06,125.56Zm3.46,0v0a.92.92,0,0,0,.94,1H226a.93.93,0,0,0,.95-1v0a.92.92,0,0,0-.95-.94h-3.57A.91.91,0,0,0,221.52,125.56Zm7.15,0v0a.92.92,0,0,0,.94,1h3.58a.92.92,0,0,0,.94-1v0a.91.91,0,0,0-.94-.94h-3.58A.91.91,0,0,0,228.67,125.56Zm3.46,0v0a.92.92,0,0,0,.94,1h3.57a.93.93,0,0,0,1-1v0a.92.92,0,0,0-1-.94h-3.57A.91.91,0,0,0,232.13,125.56Zm3.45,0v0a.93.93,0,0,0,.95,1h3.57a.92.92,0,0,0,.94-1v0a.91.91,0,0,0-.94-.94h-3.57A.92.92,0,0,0,235.58,125.56Zm3.46,0v0a.92.92,0,0,0,.94,1h3.58a.92.92,0,0,0,.94-1v0a.91.91,0,0,0-.94-.94H240A.91.91,0,0,0,239,125.56Zm3.46,0v0a.92.92,0,0,0,.94,1h1.82a.93.93,0,0,0,1-1v0a.92.92,0,0,0-1-.94h-1.82A.91.91,0,0,0,242.5,125.56Zm1.71,0v0a.92.92,0,0,0,.94,1H247a.92.92,0,0,0,.94-1v0a.91.91,0,0,0-.94-.94h-1.83A.91.91,0,0,0,244.21,125.56Zm1.71,0v0a.92.92,0,0,0,.94,1h3.58a.92.92,0,0,0,.94-1v0a.91.91,0,0,0-.94-.94h-3.58A.91.91,0,0,0,245.92,125.56Z"/><path class="cls-1" d="M177.6,136.88h0a.92.92,0,0,0,1,1h3.57a.92.92,0,0,0,.95-1h0a.92.92,0,0,0-.95-.95h-3.57A.92.92,0,0,0,177.6,136.88Zm3.46,0h0a.92.92,0,0,0,.94,1h3.58a.92.92,0,0,0,.94-1h0a.92.92,0,0,0-.94-.95H182A.92.92,0,0,0,181.06,136.88Zm3.46,0h0a.92.92,0,0,0,.94,1H189a.92.92,0,0,0,.95-1h0a.92.92,0,0,0-.95-.95h-3.57A.92.92,0,0,0,184.52,136.88Zm3.45,0h0a.92.92,0,0,0,.95,1h3.57a.92.92,0,0,0,.95-1h0a.92.92,0,0,0-.95-.95h-3.57A.92.92,0,0,0,188,136.88Zm3.46,0h0a.92.92,0,0,0,.94,1h1.83a.92.92,0,0,0,.94-1h0a.92.92,0,0,0-.94-.95h-1.83A.92.92,0,0,0,191.43,136.88Zm5.41,0h0a.92.92,0,0,0,.94,1h3.58a.92.92,0,0,0,.94-1h0a.92.92,0,0,0-.94-.95h-3.58A.92.92,0,0,0,196.84,136.88Zm3.46,0h0a.91.91,0,0,0,.94,1h3.57a.92.92,0,0,0,.95-1h0a.92.92,0,0,0-.95-.95h-3.57A.91.91,0,0,0,200.3,136.88Zm3.45,0h0a.92.92,0,0,0,.95,1h3.57a.92.92,0,0,0,.94-1h0a.92.92,0,0,0-.94-.95H204.7A.92.92,0,0,0,203.75,136.88Zm3.46,0h0a.92.92,0,0,0,.94,1h3.58a.92.92,0,0,0,.94-1h0a.92.92,0,0,0-.94-.95h-3.58A.92.92,0,0,0,207.21,136.88Zm3.45,0h0a.92.92,0,0,0,1,1h1.82a.92.92,0,0,0,.95-1h0a.92.92,0,0,0-.95-.95h-1.82A.92.92,0,0,0,210.66,136.88Zm1.72,0h0a.92.92,0,0,0,.94,1h1.83a.92.92,0,0,0,.94-1h0a.92.92,0,0,0-.94-.95h-1.83A.92.92,0,0,0,212.38,136.88Zm1.71,0h0a.92.92,0,0,0,.94,1h3.58a.92.92,0,0,0,.94-1h0a.92.92,0,0,0-.94-.95H215A.92.92,0,0,0,214.09,136.88Zm7.15,0h0a.92.92,0,0,0,.95,1h3.57a.92.92,0,0,0,.94-1h0a.92.92,0,0,0-.94-.95h-3.57A.92.92,0,0,0,221.24,136.88Zm3.46,0h0a.92.92,0,0,0,.94,1h3.58a.92.92,0,0,0,.94-1h0a.92.92,0,0,0-.94-.95h-3.58A.92.92,0,0,0,224.7,136.88Zm3.45,0h0a.92.92,0,0,0,.95,1h3.57a.92.92,0,0,0,1-1h0a.92.92,0,0,0-1-.95H229.1A.92.92,0,0,0,228.15,136.88Zm7.16,0h0a.92.92,0,0,0,.94,1h3.58a.92.92,0,0,0,.94-1h0a.92.92,0,0,0-.94-.95h-3.58A.92.92,0,0,0,235.31,136.88Zm3.46,0h0a.91.91,0,0,0,.94,1h3.57a.92.92,0,0,0,.95-1h0a.92.92,0,0,0-.95-.95h-3.57A.91.91,0,0,0,238.77,136.88Zm3.45,0h0a.92.92,0,0,0,.95,1H245a.91.91,0,0,0,.94-1h0a.91.91,0,0,0-.94-.95h-1.82A.92.92,0,0,0,242.22,136.88Z"/><path class="cls-1" d="M179,159.51h0a.92.92,0,0,0,1,.95h1.82a.92.92,0,0,0,.95-.95h0a.92.92,0,0,0-.95-.95H180A.92.92,0,0,0,179,159.51Zm1.71,0h0a.92.92,0,0,0,.95.95h1.82a.92.92,0,0,0,.95-.95h0a.92.92,0,0,0-.95-.95h-1.82A.92.92,0,0,0,180.72,159.51Zm1.72,0h0a.91.91,0,0,0,.94.95H187a.92.92,0,0,0,1-.95h0a.92.92,0,0,0-1-.95h-3.57A.91.91,0,0,0,182.44,159.51Zm3.45,0h0a.92.92,0,0,0,1,.95h3.57a.92.92,0,0,0,.94-.95h0a.92.92,0,0,0-.94-.95h-3.57A.92.92,0,0,0,185.89,159.51Zm3.46,0h0a.92.92,0,0,0,.94.95h3.58a.92.92,0,0,0,.94-.95h0a.92.92,0,0,0-.94-.95h-3.58A.92.92,0,0,0,189.35,159.51Zm7.15,0h0a.92.92,0,0,0,.95.95H201a.92.92,0,0,0,.94-.95h0a.92.92,0,0,0-.94-.95h-3.57A.92.92,0,0,0,196.5,159.51Zm3.46,0h0a.92.92,0,0,0,.94.95h3.58a.92.92,0,0,0,.94-.95h0a.92.92,0,0,0-.94-.95H200.9A.92.92,0,0,0,200,159.51Zm3.45,0h0a.92.92,0,0,0,1,.95h3.57a.92.92,0,0,0,.95-.95h0a.92.92,0,0,0-.95-.95h-3.57A.92.92,0,0,0,203.41,159.51Zm3.46,0h0a.92.92,0,0,0,.95.95h3.57a.92.92,0,0,0,.94-.95h0a.92.92,0,0,0-.94-.95h-3.57A.92.92,0,0,0,206.87,159.51Zm3.46,0h0a.92.92,0,0,0,.94.95h3.58a.92.92,0,0,0,.94-.95h0a.92.92,0,0,0-.94-.95h-3.58A.92.92,0,0,0,210.33,159.51Z"/><path class="cls-1" d="M235.33,159.51h0a.92.92,0,0,0,.95.95h3.57a.92.92,0,0,0,.94-.95h0a.92.92,0,0,0-.94-.95h-3.57A.92.92,0,0,0,235.33,159.51Zm3.46,0h0a.92.92,0,0,0,.94.95h3.57a.92.92,0,0,0,.95-.95h0a.92.92,0,0,0-.95-.95h-3.57A.92.92,0,0,0,238.79,159.51Zm7.15,0h0a.92.92,0,0,0,.95.95h3.57a.92.92,0,0,0,.94-.95h0a.92.92,0,0,0-.94-.95h-3.57A.92.92,0,0,0,245.94,159.51Zm3.46,0h0a.92.92,0,0,0,.94.95h3.58a.92.92,0,0,0,.94-.95h0a.92.92,0,0,0-.94-.95h-3.58A.92.92,0,0,0,249.4,159.51Zm3.45,0h0a.92.92,0,0,0,1,.95h1.82a.92.92,0,0,0,.95-.95h0a.92.92,0,0,0-.95-.95H253.8A.92.92,0,0,0,252.85,159.51Z"/><path class="cls-1" d="M124.1,159.51h0a.92.92,0,0,0,1,.95h3.57a.92.92,0,0,0,.94-.95h0a.92.92,0,0,0-.94-.95h-3.57A.92.92,0,0,0,124.1,159.51Zm3.46,0h0a.92.92,0,0,0,.94.95h3.58a.92.92,0,0,0,.94-.95h0a.92.92,0,0,0-.94-.95H128.5A.92.92,0,0,0,127.56,159.51Zm7.15,0h0a.92.92,0,0,0,.95.95h3.57a.92.92,0,0,0,.94-.95h0a.92.92,0,0,0-.94-.95h-3.57A.92.92,0,0,0,134.71,159.51Zm3.46,0h0a.92.92,0,0,0,.94.95h3.58a.92.92,0,0,0,.94-.95h0a.92.92,0,0,0-.94-.95h-3.58A.92.92,0,0,0,138.17,159.51Zm7.15,0h0a.92.92,0,0,0,1,.95h3.57a.92.92,0,0,0,.94-.95h0a.92.92,0,0,0-.94-.95h-3.57A.92.92,0,0,0,145.32,159.51Zm3.46,0h0a.92.92,0,0,0,.94.95h3.58a.92.92,0,0,0,.94-.95h0a.92.92,0,0,0-.94-.95h-3.58A.92.92,0,0,0,148.78,159.51Zm3.46,0h0a.91.91,0,0,0,.94.95h3.57a.92.92,0,0,0,.95-.95h0a.92.92,0,0,0-.95-.95h-3.57A.91.91,0,0,0,152.24,159.51Zm3.45,0h0a.92.92,0,0,0,.95.95h3.57a.92.92,0,0,0,.94-.95h0a.92.92,0,0,0-.94-.95h-3.57A.92.92,0,0,0,155.69,159.51Z"/><path class="cls-1" d="M238.85,106.47h0a.92.92,0,0,0,1,1h3.57a.92.92,0,0,0,.94-1h0a.92.92,0,0,0-.94-1H239.8A.92.92,0,0,0,238.85,106.47Zm3.46,0h0a.92.92,0,0,0,.94,1h3.58a.92.92,0,0,0,.94-1h0a.92.92,0,0,0-.94-1h-3.58A.92.92,0,0,0,242.31,106.47Zm3.45,0h0a.92.92,0,0,0,1,1h1.82a.92.92,0,0,0,.95-1h0a.92.92,0,0,0-.95-1h-1.82A.92.92,0,0,0,245.76,106.47Zm1.72,0h0a.91.91,0,0,0,.94,1h1.82a.92.92,0,0,0,.95-1h0a.92.92,0,0,0-.95-1h-1.82A.91.91,0,0,0,247.48,106.47Zm1.71,0h0a.92.92,0,0,0,.94,1h3.58a.92.92,0,0,0,.94-1h0a.92.92,0,0,0-.94-1h-3.58A.92.92,0,0,0,249.19,106.47Z"/><path class="cls-1" d="M206.8,77.26H128.42a.55.55,0,0,1-.55-.55.55.55,0,0,1,.55-.55H206.8a.55.55,0,0,1,.55.55A.54.54,0,0,1,206.8,77.26Z"/><path class="cls-4" d="M167.29,85.88H118A2.12,2.12,0,0,0,115.9,88v60.1a2.12,2.12,0,0,0,2.11,2.13h49.28a2.11,2.11,0,0,0,2.11-2.13V88A2.11,2.11,0,0,0,167.29,85.88Z"/><path class="cls-2" d="M118,150.24h49.28c2,0,2.11-2.13,2.11-2.13l-.08-16c-2.11-6.82-6.81-12.24-14.19-14.15l-1.42-.37.78-1.23a14.47,14.47,0,1,0-24.31,0l.78,1.23-1.41.37c-7.39,1.92-11.57,7.34-13.68,14.15l0,16C115.53,150.12,118,150.24,118,150.24Z"/><circle class="cls-3" cx="137.07" cy="104.35" r="1.43"/><circle class="cls-3" cx="147.42" cy="104.35" r="1.43"/><path class="cls-3" d="M142.24,113.3c-3,0-5.29-1.64-5.29-3.74a1,1,0,0,1,2,0c0,.82,1.41,1.74,3.29,1.74s3.3-.92,3.3-1.74a1,1,0,0,1,2,0C147.54,111.66,145.21,113.3,142.24,113.3Z"/><path class="cls-3" d="M142.71,108.74H141a1,1,0,0,1,0-2h.69V101a1,1,0,0,1,2,0v6.78A1,1,0,0,1,142.71,108.74Z"/><path class="cls-3" d="M142.36,128.4a18,18,0,0,1-15.47-8.71,1,1,0,0,1,.33-1.37,1,1,0,0,1,1.38.33,16.1,16.1,0,0,0,27.32.33,1,1,0,0,1,1.38-.31,1,1,0,0,1,.3,1.38A18,18,0,0,1,142.36,128.4Z"/><path class="cls-3" d="M169.32,133.09a1,1,0,0,1-1-.7c-2.16-7-7-11.79-13.48-13.48l-1.42-.37a1,1,0,0,1-.68-.6,1,1,0,0,1,.09-.9l.78-1.24a13.47,13.47,0,1,0-22.62,0l.77,1.24a1,1,0,0,1-.59,1.5l-1.41.37c-6.36,1.64-10.72,6.18-13,13.48a1,1,0,1,1-1.91-.59c2.47-8,7.3-13,14.37-14.83l.09,0,0-.08a15.47,15.47,0,1,1,26,0l-.05.08.09,0c7.23,1.87,12.52,7.14,14.89,14.83a1,1,0,0,1-.66,1.25A1,1,0,0,1,169.32,133.09Z"/><path class="cls-3" d="M167.29,151.24H118a3.12,3.12,0,0,1-3.11-3.13V88A3.12,3.12,0,0,1,118,84.88h49.28A3.12,3.12,0,0,1,170.4,88v60.1A3.12,3.12,0,0,1,167.29,151.24ZM118,86.88A1.12,1.12,0,0,0,116.9,88v60.1a1.12,1.12,0,0,0,1.11,1.13h49.28a1.12,1.12,0,0,0,1.11-1.13V88a1.12,1.12,0,0,0-1.11-1.13Z"/><path class="cls-4" d="M102.89,33.2H5.19A4.19,4.19,0,0,0,1,37.4V185a4.2,4.2,0,0,0,4.19,4.21h97.7a4.2,4.2,0,0,0,4.18-4.21V37.4A4.19,4.19,0,0,0,102.89,33.2Z"/><path class="cls-5" d="M84.16,116.75l-3.41-.89,1.88-3a34.88,34.88,0,1,0-58.62,0l1.88,3-3.41.89A42.5,42.5,0,0,0,1,129.64V186a4.2,4.2,0,0,0,4.19,4.21h97.7a4.2,4.2,0,0,0,4.18-4.21V130.51A45.86,45.86,0,0,0,84.16,116.75Z"/><circle class="cls-3" cx="64.67" cy="82.75" r="2.75"/><circle class="cls-3" cx="43.45" cy="82.75" r="2.75"/><path class="cls-3" d="M54,104.65c-6.65,0-11.85-3.57-11.85-8.12a1.5,1.5,0,0,1,3,0c0,2.78,4.05,5.12,8.85,5.12s8.85-2.34,8.85-5.12a1.5,1.5,0,0,1,3,0C65.89,101.08,60.68,104.65,54,104.65Z"/><path class="cls-3" d="M56.08,93.66H52a1.5,1.5,0,0,1,0-3h2.59V75.8a1.5,1.5,0,0,1,3,0V92.16A1.5,1.5,0,0,1,56.08,93.66Z"/><path class="cls-3" d="M54.29,139.09A41.93,41.93,0,0,1,18.2,118.78l1.71-1a40.22,40.22,0,0,0,68.26.81l1.69,1.07A42.08,42.08,0,0,1,54.29,139.09Z"/><path class="cls-3" d="M106.33,131.05A44.8,44.8,0,0,0,84,117.71l-4.74-1.22,2.61-4.14a33.88,33.88,0,1,0-56.92,0l2.61,4.14-4.73,1.22A41.8,41.8,0,0,0,2.05,130.05L.57,128.71a43.69,43.69,0,0,1,21.75-12.93l2.08-.54-1.14-1.82a35.87,35.87,0,1,1,60.31,0l-1.15,1.82,2.08.54a46.81,46.81,0,0,1,23.31,13.92Z"/><path class="cls-3" d="M102.89,191.2H5.19A5.21,5.21,0,0,1,0,186V37.4a5.21,5.21,0,0,1,5.19-5.21h97.7a5.2,5.2,0,0,1,5.18,5.21V186A5.2,5.2,0,0,1,102.89,191.2Zm-97.7-157A3.2,3.2,0,0,0,2,37.4V186a3.2,3.2,0,0,0,3.19,3.21h97.7a3.2,3.2,0,0,0,3.18-3.21V37.4a3.2,3.2,0,0,0-3.18-3.21Z"/><path class="cls-3" d="M74.05,21.22l.13-.68a.62.62,0,0,1,.64-.53h2.86l1.47-7.68-3.1,1.18a.91.91,0,0,1-.26.05c-.25,0-.42-.17-.49-.47l-.1-.45a.62.62,0,0,1,.38-.76l3.76-1.47a1.46,1.46,0,0,1,.72-.15H81a.49.49,0,0,1,.54.64L79.76,20h2a.5.5,0,0,1,.55.64l-.14.68a.6.6,0,0,1-.64.53h-7A.48.48,0,0,1,74.05,21.22Z"/><path class="cls-3" d="M84.64,17.72c0-3.91,2.34-7.65,6-7.65,2.63,0,3.84,1.81,3.84,4.29,0,3.93-2.31,7.71-5.92,7.71C85.85,22.07,84.64,20.23,84.64,17.72Zm7.73-3.29c0-1.42-.57-2.4-2-2.4-2.36,0-3.7,3-3.7,5.63,0,1.44.58,2.44,2,2.44C91,20.1,92.37,17.08,92.37,14.43Z"/><path class="cls-3" d="M96,21.22l.13-.68a.63.63,0,0,1,.65-.53h2.85l1.47-7.68L98,13.51a1,1,0,0,1-.27.05c-.24,0-.41-.17-.49-.47l-.1-.45a.62.62,0,0,1,.38-.76l3.76-1.47a1.48,1.48,0,0,1,.72-.15h.91a.5.5,0,0,1,.55.64L101.69,20h2c.44,0,.63.28.55.64l-.13.68a.61.61,0,0,1-.64.53h-7A.49.49,0,0,1,96,21.22Z"/><path class="cls-3" d="M190.11,55.8l.13-.68a.62.62,0,0,1,.64-.53h2.86l1.47-7.67-3.1,1.17a.69.69,0,0,1-.26.06c-.25,0-.42-.17-.49-.48l-.1-.45a.62.62,0,0,1,.38-.76L195.4,45a1.58,1.58,0,0,1,.72-.15H197a.49.49,0,0,1,.54.64l-1.75,9.11h2a.5.5,0,0,1,.55.64l-.14.68a.6.6,0,0,1-.64.53h-7A.48.48,0,0,1,190.11,55.8Z"/><path class="cls-3" d="M200.7,52.3c0-3.91,2.34-7.65,6-7.65,2.63,0,3.84,1.81,3.84,4.29,0,3.93-2.31,7.71-5.92,7.71C201.91,56.65,200.7,54.82,200.7,52.3ZM208.43,49c0-1.41-.57-2.39-2-2.39-2.36,0-3.7,2.94-3.7,5.63,0,1.43.58,2.43,2,2.43C207.07,54.68,208.43,51.66,208.43,49Z"/><path class="cls-3" d="M212,55.8l.13-.68a.63.63,0,0,1,.65-.53h2.85l1.47-7.67-3.09,1.17a.74.74,0,0,1-.27.06c-.24,0-.41-.17-.49-.48l-.1-.45a.62.62,0,0,1,.38-.76L217.33,45a1.61,1.61,0,0,1,.72-.15H219a.5.5,0,0,1,.55.64l-1.76,9.11h2c.44,0,.63.28.55.64l-.13.68a.61.61,0,0,1-.64.53h-7A.49.49,0,0,1,212,55.8Z"/><path class="cls-3" d="M222.63,52.3c0-3.91,2.35-7.65,6-7.65,2.63,0,3.84,1.81,3.84,4.29,0,3.93-2.31,7.71-5.92,7.71C223.84,56.65,222.63,54.82,222.63,52.3ZM230.36,49c0-1.41-.57-2.39-2-2.39-2.36,0-3.7,2.94-3.7,5.63,0,1.43.59,2.43,2,2.43C229,54.68,230.36,51.66,230.36,49Z"/><path class="cls-3" d="M234,55.8l.13-.68a.61.61,0,0,1,.64-.53h2.85l1.48-7.67L236,48.09a.7.7,0,0,1-.27.06c-.24,0-.41-.17-.49-.48l-.09-.45a.61.61,0,0,1,.38-.76L239.27,45a1.55,1.55,0,0,1,.72-.15h.9c.44,0,.63.26.55.64l-1.76,9.11h2c.44,0,.63.28.55.64l-.13.68a.61.61,0,0,1-.64.53h-7A.48.48,0,0,1,234,55.8Z"/><path class="cls-3" d="M149.65,35l.13-.68a.61.61,0,0,1,.64-.53h2.85l1.48-7.68-3.1,1.18a1,1,0,0,1-.27.05c-.24,0-.41-.17-.49-.47l-.09-.45a.61.61,0,0,1,.38-.76l3.76-1.47a1.44,1.44,0,0,1,.72-.16h.9a.5.5,0,0,1,.55.65l-1.76,9.11h2c.44,0,.63.28.55.64l-.13.68a.61.61,0,0,1-.64.53h-7A.48.48,0,0,1,149.65,35Z"/><path class="cls-3" d="M160.23,31.54c0-3.91,2.35-7.65,6-7.65,2.62,0,3.83,1.81,3.83,4.29,0,3.93-2.3,7.71-5.91,7.71C161.44,35.89,160.23,34.05,160.23,31.54ZM168,28.25c0-1.42-.56-2.4-2-2.4-2.36,0-3.71,2.95-3.71,5.63,0,1.44.59,2.44,2,2.44C166.6,33.92,168,30.9,168,28.25Z"/><path class="cls-3" d="M171.58,35l.13-.68a.62.62,0,0,1,.64-.53h2.86l1.47-7.68-3.1,1.18a.91.91,0,0,1-.26.05c-.25,0-.42-.17-.49-.47l-.1-.45a.62.62,0,0,1,.38-.76l3.76-1.47a1.46,1.46,0,0,1,.72-.16h.91a.49.49,0,0,1,.54.65l-1.75,9.11h2a.5.5,0,0,1,.55.64l-.14.68a.6.6,0,0,1-.64.53h-7A.48.48,0,0,1,171.58,35Z"/><path class="cls-3" d="M182.17,31.54c0-3.91,2.34-7.65,6-7.65,2.63,0,3.84,1.81,3.84,4.29,0,3.93-2.31,7.71-5.92,7.71C183.38,35.89,182.17,34.05,182.17,31.54Zm7.73-3.29c0-1.42-.57-2.4-2-2.4-2.36,0-3.7,2.95-3.7,5.63,0,1.44.58,2.44,2,2.44C188.54,33.92,189.9,30.9,189.9,28.25Z"/><path class="cls-3" d="M193.51,35l.13-.68a.63.63,0,0,1,.65-.53h2.85l1.47-7.68-3.09,1.18a1,1,0,0,1-.27.05c-.24,0-.42-.17-.49-.47l-.1-.45a.62.62,0,0,1,.38-.76l3.76-1.47a1.49,1.49,0,0,1,.72-.16h.91a.5.5,0,0,1,.55.65l-1.76,9.11h2c.44,0,.63.28.55.64l-.13.68a.61.61,0,0,1-.65.53h-7A.49.49,0,0,1,193.51,35Z"/><path class="cls-3" d="M156.63,55.54l.13-.68a.61.61,0,0,1,.64-.53h2.86l1.47-7.67-3.1,1.17a.69.69,0,0,1-.26.06c-.25,0-.42-.17-.5-.48l-.09-.45a.61.61,0,0,1,.38-.76l3.76-1.47a1.55,1.55,0,0,1,.72-.15h.9c.44,0,.63.26.55.64l-1.76,9.11h2a.49.49,0,0,1,.54.64l-.13.68a.6.6,0,0,1-.64.53h-7A.48.48,0,0,1,156.63,55.54Z"/><path class="cls-3" d="M167.22,52c0-3.91,2.34-7.65,5.95-7.65,2.62,0,3.83,1.81,3.83,4.29,0,3.93-2.3,7.71-5.91,7.71C168.43,56.39,167.22,54.56,167.22,52ZM175,48.75c0-1.41-.57-2.39-2-2.39-2.36,0-3.7,2.94-3.7,5.63,0,1.43.58,2.43,2,2.43C173.58,54.42,175,51.4,175,48.75Z"/><path class="cls-3" d="M178.56,55.54l.13-.68a.63.63,0,0,1,.65-.53h2.85l1.47-7.67-3.1,1.17a.69.69,0,0,1-.26.06c-.25,0-.42-.17-.49-.48l-.1-.45a.62.62,0,0,1,.38-.76l3.76-1.47a1.61,1.61,0,0,1,.72-.15h.91a.49.49,0,0,1,.54.64l-1.75,9.11h2a.5.5,0,0,1,.55.64l-.14.68a.6.6,0,0,1-.64.53h-7A.49.49,0,0,1,178.56,55.54Z"/><path class="cls-3" d="M201,189.24l.13-.69a.62.62,0,0,1,.65-.52h2.85l1.47-7.68L203,181.53a1,1,0,0,1-.27.05c-.24,0-.41-.17-.49-.47l-.1-.45a.62.62,0,0,1,.38-.76l3.76-1.47a1.49,1.49,0,0,1,.72-.16h.91a.5.5,0,0,1,.55.65L206.7,188h2c.44,0,.63.28.55.64l-.13.68a.61.61,0,0,1-.64.53h-7A.49.49,0,0,1,201,189.24Z"/><path class="cls-3" d="M211.58,185.74c0-3.91,2.35-7.65,5.95-7.65,2.63,0,3.84,1.81,3.84,4.29,0,3.93-2.31,7.71-5.91,7.71C212.79,190.09,211.58,188.25,211.58,185.74Zm7.73-3.29c0-1.42-.57-2.4-2-2.4-2.36,0-3.7,2.95-3.7,5.63,0,1.44.59,2.44,2,2.44C218,188.12,219.31,185.1,219.31,182.45Z"/><path class="cls-3" d="M222.93,189.24l.13-.69a.6.6,0,0,1,.64-.52h2.85l1.48-7.68-3.1,1.18a.91.91,0,0,1-.27.05c-.24,0-.41-.17-.49-.47l-.09-.45a.61.61,0,0,1,.38-.76l3.76-1.47a1.44,1.44,0,0,1,.72-.16h.9a.5.5,0,0,1,.55.65L228.63,188h2c.44,0,.63.28.55.64l-.13.68a.61.61,0,0,1-.64.53h-7A.48.48,0,0,1,222.93,189.24Z"/><path class="cls-3" d="M233.52,185.74c0-3.91,2.34-7.65,5.95-7.65,2.62,0,3.83,1.81,3.83,4.29,0,3.93-2.3,7.71-5.91,7.71C234.72,190.09,233.52,188.25,233.52,185.74Zm7.72-3.29c0-1.42-.56-2.4-2-2.4-2.36,0-3.71,2.95-3.71,5.63,0,1.44.59,2.44,2,2.44C239.88,188.12,241.24,185.1,241.24,182.45Z"/><path class="cls-3" d="M244.86,189.24l.13-.69a.61.61,0,0,1,.64-.52h2.86l1.47-7.68-3.1,1.18a.91.91,0,0,1-.26.05c-.25,0-.42-.17-.49-.47l-.1-.45a.62.62,0,0,1,.38-.76l3.76-1.47a1.46,1.46,0,0,1,.72-.16h.91a.49.49,0,0,1,.54.65L250.57,188h2a.5.5,0,0,1,.55.64l-.14.68a.6.6,0,0,1-.64.53h-7A.48.48,0,0,1,244.86,189.24Z"/><path class="cls-3" d="M85.12,208.57l.13-.68a.63.63,0,0,1,.65-.53h2.85l1.47-7.67-3.1,1.17a.65.65,0,0,1-.26.06c-.24,0-.42-.17-.49-.47l-.1-.46a.61.61,0,0,1,.38-.75l3.76-1.48a1.61,1.61,0,0,1,.72-.15H92a.5.5,0,0,1,.55.65l-1.76,9.1h2a.5.5,0,0,1,.55.65l-.13.68a.61.61,0,0,1-.65.53h-7A.5.5,0,0,1,85.12,208.57Z"/><path class="cls-3" d="M95.71,205.08c0-3.91,2.34-7.66,6-7.66,2.63,0,3.84,1.82,3.84,4.29,0,3.93-2.31,7.71-5.92,7.71C96.92,209.42,95.71,207.59,95.71,205.08Zm7.73-3.29c0-1.42-.57-2.4-2-2.4-2.36,0-3.7,3-3.7,5.63,0,1.44.59,2.44,2,2.44C102.08,207.46,103.44,204.43,103.44,201.79Z"/><path class="cls-3" d="M107.05,208.57l.14-.68a.61.61,0,0,1,.64-.53h2.85l1.48-7.67-3.1,1.17a.74.74,0,0,1-.27.06c-.24,0-.41-.17-.49-.47l-.09-.46a.6.6,0,0,1,.38-.75l3.76-1.48a1.54,1.54,0,0,1,.71-.15H114a.5.5,0,0,1,.55.65l-1.76,9.1h2a.5.5,0,0,1,.55.65l-.13.68a.61.61,0,0,1-.64.53h-7A.5.5,0,0,1,107.05,208.57Z"/><path class="cls-2" d="M136.81,149.82a47.15,47.15,0,0,1-5.16,1.6l21.79,57.7a4.81,4.81,0,0,0,6.2,2.8l1.08-.41a4.8,4.8,0,0,0,2.8-6.2l-21.78-57.7A46.75,46.75,0,0,1,136.81,149.82Z"/><path class="cls-3" d="M157.94,213.23a5.81,5.81,0,0,1-5.44-3.76l-21.78-57.7a1,1,0,0,1,.05-.81,1,1,0,0,1,.64-.51,46.57,46.57,0,0,0,5.05-1.57,45,45,0,0,0,4.82-2.16,1,1,0,0,1,.82,0,1,1,0,0,1,.57.58L164.46,205a5.82,5.82,0,0,1-3.38,7.49l-1.09.41A5.88,5.88,0,0,1,157.94,213.23Zm-25-61.12,21.39,56.66a3.81,3.81,0,0,0,4.91,2.21l1.09-.41a3.79,3.79,0,0,0,2.22-4.9L141.2,149c-1.36.66-2.71,1.25-4,1.75h0C135.83,151.25,134.43,151.71,133,152.11Zm3.83-2.29h0Z"/><path class="cls-2" d="M138.29,149.82a46.68,46.68,0,1,0-60.16-27.19A46.69,46.69,0,0,0,138.29,149.82ZM88,118.9a36.11,36.11,0,1,1,46.54,21A36.11,36.11,0,0,1,88,118.9Z"/><path class="cls-3" d="M121.78,153.85a47.81,47.81,0,1,1,16.86-3.1h0A47.58,47.58,0,0,1,121.78,153.85Zm0-93.41a45.75,45.75,0,1,0,18.79,4.07A45.46,45.46,0,0,0,121.82,60.44Zm16.47,89.38h0Zm-16.5-6.54a37.22,37.22,0,0,1-34.71-24h0a37,37,0,1,1,34.71,24Zm0-72.27A35.16,35.16,0,0,0,89,118.55h0A35.1,35.1,0,1,0,121.82,71Z"/></g></g></svg>