<svg width="31" height="31" viewBox="0 0 31 31" fill="none" xmlns="http://www.w3.org/2000/svg">
<path id="github" d="M15.5 0C6.9404 0 0 7.12031 0 15.8944C0 22.9178 4.44241 28.8687 10.6009 30.9723C10.6873 30.9911 10.7754 31.0004 10.8638 31C11.4382 31 11.6596 30.5779 11.6596 30.2111C11.6596 29.8306 11.6458 28.8341 11.6388 27.5056C11.1261 27.6258 10.6016 27.6884 10.075 27.6924C7.09263 27.6924 6.41451 25.3743 6.41451 25.3743C5.7087 23.5406 4.69152 23.0493 4.69152 23.0493C3.34219 22.1013 4.6846 22.0737 4.78839 22.0737H4.79531C6.35223 22.212 7.16875 23.7205 7.16875 23.7205C7.94375 25.0768 8.9817 25.4574 9.90893 25.4574C10.522 25.4451 11.1257 25.3036 11.6804 25.0422C11.8187 24.0181 12.2201 23.3192 12.6629 22.9178C9.22388 22.5165 5.60491 21.1533 5.60491 15.0641C5.60491 13.3272 6.20692 11.9087 7.19643 10.8016C7.03728 10.4002 6.50446 8.78102 7.34866 6.59442C7.4619 6.56732 7.57828 6.55568 7.69464 6.55982C8.25513 6.55982 9.52143 6.77433 11.6112 8.22745C14.1504 7.51702 16.8358 7.51702 19.375 8.22745C21.4647 6.77433 22.731 6.55982 23.2915 6.55982C23.4079 6.55568 23.5243 6.56732 23.6375 6.59442C24.4817 8.78102 23.9489 10.4002 23.7897 10.8016C24.7792 11.9156 25.3812 13.3341 25.3812 15.0641C25.3812 21.1672 21.7554 22.5096 18.3025 22.904C18.856 23.3953 19.3542 24.3641 19.3542 25.8449C19.3542 27.9692 19.3335 29.6853 19.3335 30.2042C19.3335 30.5779 19.548 31 20.1223 31C20.2153 31.0004 20.3081 30.9911 20.3991 30.9723C26.5645 28.8687 31 22.9109 31 15.8944C31 7.12031 24.0596 0 15.5 0Z" fill="white"/>
</svg>
