<svg width="15" height="10" viewBox="0 0 15 10" fill="none" xmlns="http://www.w3.org/2000/svg">
<g id="icon-arrow-purple-darker.svg" clip-path="url(#clip0_395_123)">
<g id="desktop">
<g id="_x30_1-home-idwall">
<path id="Arrow-right" fill-rule="evenodd" clip-rule="evenodd" d="M14.8334 4.66662L10.1666 0.0832825C9.99996 -0.0833842 9.66669 -0.0833842 9.50002 0.0832825C9.33335 0.249949 9.33335 0.583323 9.50002 0.74999L13.3333 4.49999H0.416667C0.166667 4.49999 -0.083313 4.66666 -0.083313 4.91666C-0.083313 5.16666 0.0833333 5.33332 0.416667 5.33332H13.3333L9.50002 9.08332C9.33335 9.24999 9.33335 9.58326 9.50002 9.74993C9.58335 9.83326 9.75004 9.91666 9.83337 9.91666C9.91671 9.91666 10.0833 9.83326 10.1666 9.74993L14.8334 5.1666C15.0834 5.1666 15.0834 4.83328 14.8334 4.66662Z" fill="#5500FF"/>
</g>
</g>
</g>
<defs>
<clipPath id="clip0_395_123">
<rect width="15" height="10" fill="white"/>
</clipPath>
</defs>
</svg>
