<svg width="90" height="90" viewBox="0 0 90 90" fill="none" xmlns="http://www.w3.org/2000/svg">
<g clip-path="url(#clip0_20_38)">
<path d="M52.0017 43.8441C53.7172 42.0512 54.6748 39.6655 54.675 37.1841C54.675 31.8488 50.3339 27.5077 44.9986 27.5077C39.6633 27.5077 35.3222 31.8488 35.3222 37.1841C35.3222 39.7645 36.3445 42.1059 37.9955 43.8441C34.0369 45.7706 31.2947 49.8234 31.2947 54.5161V56.5889C31.2947 57.1484 31.5169 57.6849 31.9125 58.0805C32.3081 58.476 32.8446 58.6983 33.4041 58.6983H56.5931C57.1526 58.6983 57.6891 58.476 58.0847 58.0805C58.4803 57.6849 58.7025 57.1484 58.7025 56.5889V54.5161C58.7039 49.8234 55.9617 45.7706 52.0017 43.8441ZM45 31.7264C48.0094 31.7264 50.4576 34.1747 50.4576 37.1841C50.4576 40.1934 48.0094 42.6417 45 42.6417C41.9906 42.6417 39.5423 40.1934 39.5423 37.1841C39.5423 34.1747 41.9906 31.7264 45 31.7264ZM43.1691 46.8591H44.9719L45 46.8605L45.0281 46.8591H46.8295C48.8527 46.8616 50.7928 47.6641 52.2266 49.0914C53.6605 50.5186 54.4719 52.455 54.4837 54.4781H35.5176C35.5292 52.4554 36.34 50.5192 37.7734 49.0919C39.2067 47.6646 41.1463 46.862 43.1691 46.8591Z" fill="#5500FF"/>
<path d="M87.8906 42.9919H76.538C75.4945 27.2377 62.8636 14.6081 47.1094 13.5647V2.10938C47.1094 1.54993 46.8871 1.01341 46.4916 0.617822C46.096 0.222237 45.5594 0 45 0C44.4406 0 43.904 0.222237 43.5084 0.617822C43.1129 1.01341 42.8906 1.54993 42.8906 2.10938V13.5647C27.1364 14.6081 14.5055 27.2391 13.462 42.9933H2.10938C1.54993 42.9933 1.01341 43.2155 0.617822 43.6111C0.222237 44.0067 0 44.5432 0 45.1027C0 45.6621 0.222237 46.1986 0.617822 46.5942C1.01341 46.9898 1.54993 47.212 2.10938 47.212H13.462C14.5055 62.9663 27.1364 75.5972 42.8906 76.6406V87.8906C42.8906 88.4501 43.1129 88.9866 43.5084 89.3822C43.904 89.7778 44.4406 90 45 90C45.5594 90 46.096 89.7778 46.4916 89.3822C46.8871 88.9866 47.1094 88.4501 47.1094 87.8906V76.6392C62.8636 75.5958 75.4945 62.9648 76.538 47.2106H87.8906C88.4501 47.2106 88.9866 46.9884 89.3822 46.5928C89.7778 46.1972 90 45.6607 90 45.1012C90 44.5418 89.7778 44.0053 89.3822 43.6097C88.9866 43.2141 88.4501 42.9919 87.8906 42.9919ZM47.1094 72.3923V68.4239C47.1094 67.8645 46.8871 67.3279 46.4916 66.9324C46.096 66.5368 45.5594 66.3145 45 66.3145C44.4406 66.3145 43.904 66.5368 43.5084 66.9324C43.1129 67.3279 42.8906 67.8645 42.8906 68.4239V72.3923C29.468 71.363 18.7397 60.6347 17.7103 47.212H21.5775C22.1369 47.212 22.6735 46.9898 23.0691 46.5942C23.4646 46.1986 23.6869 45.6621 23.6869 45.1027C23.6869 44.5432 23.4646 44.0067 23.0691 43.6111C22.6735 43.2155 22.1369 42.9933 21.5775 42.9933H17.7103C18.7397 29.5706 29.468 18.8423 42.8906 17.813V21.5789C42.8906 22.1383 43.1129 22.6749 43.5084 23.0705C43.904 23.466 44.4406 23.6883 45 23.6883C45.5594 23.6883 46.096 23.466 46.4916 23.0705C46.8871 22.6749 47.1094 22.1383 47.1094 21.5789V17.813C60.532 18.8423 71.2603 29.5706 72.2897 42.9933H68.4225C67.8631 42.9933 67.3265 43.2155 66.9309 43.6111C66.5354 44.0067 66.3131 44.5432 66.3131 45.1027C66.3131 45.6621 66.5354 46.1986 66.9309 46.5942C67.3265 46.9898 67.8631 47.212 68.4225 47.212H72.2897C71.2603 60.6333 60.532 71.3616 47.1094 72.3923Z" fill="#5500FF"/>
</g>
<defs>
<clipPath id="clip0_20_38">
<rect width="90" height="90" fill="white"/>
</clipPath>
</defs>
</svg>
