<svg width="78" height="78" viewBox="0 0 78 78" fill="none" xmlns="http://www.w3.org/2000/svg">
<g id="placeholder 1">
<g id="Group">
<path id="Vector" d="M39.1494 6.09452C38.3069 6.08843 37.6198 6.76636 37.6137 7.6073C37.6076 8.44823 38.284 9.1353 39.1265 9.1414C39.9674 9.14749 40.6545 8.47109 40.6606 7.63015C40.6667 6.78921 39.9903 6.10214 39.1494 6.09452ZM39.08 15.235C33.1979 15.1933 28.3806 19.9386 28.3361 25.8189C28.2918 31.6989 33.0398 36.5185 38.9201 36.5628L39.0017 36.5631C44.8446 36.5631 49.6198 31.8319 49.664 25.9789C49.7083 20.0992 44.9605 15.2793 39.08 15.235ZM39.0014 33.5164L38.9429 33.5161C34.7427 33.4844 31.3512 30.0417 31.3829 25.8418C31.4144 21.6607 34.8251 18.2814 38.9987 18.2814L39.0572 18.2817C43.2575 18.3134 46.6489 21.7561 46.6172 25.956C46.5856 30.1371 43.175 33.5164 39.0014 33.5164ZM45.647 7.2499C44.8545 6.96867 43.9832 7.38381 43.702 8.17691C43.4209 8.97001 43.8361 9.84066 44.629 10.1219C51.3393 12.5001 55.8113 18.8911 55.7577 26.0249C55.7515 26.8661 56.4283 27.5534 57.2697 27.5598H57.2815C58.1172 27.5598 58.7982 26.8852 58.8046 26.0477C58.868 17.616 53.5803 10.0617 45.647 7.2499Z" fill="#5500FF"/>
<path id="Vector_2" d="M48.3474 57.3486C58.4802 44.3057 64.8127 37.5043 64.8981 26.0931C65.0054 11.7358 53.3538 0 38.9976 0C24.8089 0 13.2097 11.491 13.1019 25.7047C13.0147 37.4252 19.4648 44.2173 29.6676 57.3465C19.5177 58.8632 13.1019 62.6744 13.1019 67.3359C13.1019 70.4585 15.9882 73.2606 21.2293 75.2258C25.9996 77.0146 32.3107 77.9998 39 77.9998C45.6893 77.9998 52.0004 77.0146 56.7707 75.2258C62.0118 73.2604 64.8981 70.4584 64.8981 67.3358C64.8981 62.6768 58.4883 58.8665 48.3474 57.3486ZM16.1486 25.7277C16.2437 13.1854 26.4773 3.04688 38.9979 3.04688C51.6666 3.04688 61.9459 13.4044 61.8514 26.0704C61.7704 36.9073 55.0547 43.5855 44.3332 57.562C42.4209 60.0538 40.6647 62.4096 39.0023 64.7141C37.3448 62.4082 35.6236 60.0946 33.6826 57.5611C22.5179 42.9995 16.066 36.8259 16.1486 25.7277ZM39 74.9531C25.9211 74.9531 16.1486 70.9317 16.1486 67.3359C16.1486 64.6693 21.9907 61.3007 31.8135 60.1342C33.9848 62.9832 35.8885 65.5715 37.7557 68.215C37.8962 68.4139 38.0824 68.5763 38.2987 68.6884C38.515 68.8006 38.755 68.8592 38.9986 68.8594H39C39.2434 68.8594 39.4833 68.801 39.6995 68.6893C39.9158 68.5775 40.1021 68.4155 40.2428 68.2169C42.0923 65.6079 44.0481 62.9557 46.2008 60.1359C56.0145 61.3036 61.8514 64.6711 61.8514 67.3361C61.8513 70.9317 52.0789 74.9531 39 74.9531Z" fill="#5500FF"/>
</g>
</g>
</svg>
