<svg width="137" height="69" viewBox="0 0 137 69" fill="none" xmlns="http://www.w3.org/2000/svg">
<path d="M132.235 49.1328C132.484 49.2999 132.78 49.382 133.08 49.367C133.379 49.352 133.665 49.2406 133.896 49.0494L136.063 46.8792C136.189 46.7671 136.289 46.6296 136.358 46.4759C136.427 46.3221 136.463 46.1555 136.463 45.987C136.463 45.8185 136.427 45.6519 136.358 45.4981C136.289 45.3444 136.189 45.2069 136.063 45.0948L134.668 43.6682C133.909 42.8059 133.505 41.6888 133.535 40.5407V18.8161C133.546 18.5534 133.505 18.2912 133.412 18.0451C133.32 17.799 133.178 17.5743 132.996 17.3843C132.814 17.1938 132.595 17.0419 132.353 16.9377C132.11 16.8336 131.849 16.7792 131.585 16.7779H129.754C129.49 16.7731 129.227 16.8212 128.982 16.9194C128.737 17.0176 128.514 17.1638 128.326 17.3496C127.947 17.7249 127.737 18.2357 127.744 18.7674V40.8517C127.749 42.4959 128.161 44.1132 128.945 45.5586C129.729 47.0039 130.86 48.2321 132.235 49.1328ZM121 49.1328C121.246 49.3029 121.541 49.387 121.84 49.3719C122.138 49.3568 122.424 49.2434 122.651 49.0494L124.83 46.8792C124.954 46.7672 125.053 46.6304 125.12 46.4778C125.188 46.3252 125.223 46.1601 125.223 45.9931C125.223 45.8261 125.188 45.661 125.12 45.5084C125.053 45.3558 124.954 45.219 124.83 45.1069L123.433 43.6682C122.674 42.8112 122.269 41.6973 122.302 40.5528V18.863C122.309 18.3313 122.098 17.8204 121.718 17.4451C121.53 17.2594 121.307 17.1132 121.062 17.015C120.816 16.9168 120.554 16.8687 120.29 16.8735H118.509C118.245 16.8686 117.983 16.9169 117.738 17.0154C117.493 17.1139 117.271 17.2606 117.084 17.4469C116.707 17.8204 116.5 18.333 116.51 18.863V40.8882C116.518 42.5267 116.932 44.1376 117.716 45.5766C118.499 47.0156 119.628 48.2375 121 49.1328ZM86.6958 27.7071H83.8792C83.4845 27.7006 83.0988 27.8254 82.7827 28.0619C82.4666 28.2984 82.2381 28.6332 82.133 29.0137L78.6649 40.2418L75.0525 28.9651C74.9317 28.5978 74.6976 28.2782 74.3839 28.0522C74.0702 27.8262 73.6929 27.7054 73.3062 27.7071H70.898C70.1161 27.7071 69.4246 28.2179 69.2004 28.9651L65.529 40.2053L62.0608 29.0137C61.9576 28.6321 61.7296 28.2961 61.4131 28.0593C61.0965 27.8224 60.7098 27.6984 60.3146 27.7071H57.5084C57.3094 27.695 57.1104 27.7325 56.9294 27.8162C56.7483 27.8999 56.5909 28.0272 56.4711 28.1867C56.3518 28.3456 56.274 28.5319 56.2449 28.7285C56.2158 28.9251 56.2362 29.1259 56.3043 29.3126L62.4935 48.1268C62.728 48.8653 63.4126 49.3726 64.1911 49.3848H66.8408C67.6696 49.4248 68.415 48.8861 68.634 48.0903L72.1021 36.5391L75.7162 48.0903C75.9282 48.8635 76.6424 49.3969 77.4486 49.3848H80.0723C80.8524 49.3691 81.5353 48.8635 81.7716 48.1268L87.8999 29.3126C87.9681 29.1259 87.9885 28.9251 87.9594 28.7285C87.9302 28.5319 87.8525 28.3456 87.7331 28.1867C87.6134 28.0272 87.4559 27.8999 87.2749 27.8162C87.0939 27.7325 86.8949 27.695 86.6958 27.7071ZM110.019 27.7071H108.226C107.135 27.7071 106.245 28.5759 106.228 29.6601C104.468 28.117 102.208 27.2649 99.8682 27.2623C94.1621 27.2623 89.5384 32.3446 89.5384 38.539C89.5384 44.7351 94.1603 49.8991 99.8682 49.8991C102.22 49.8922 104.486 49.0131 106.228 47.4318L108.057 49.4682H110.021C110.552 49.4682 111.063 49.2527 111.433 48.8705C111.803 48.4882 112.002 47.9739 111.982 47.4422V29.7088C111.987 29.4452 111.939 29.1833 111.841 28.9388C111.742 28.6943 111.595 28.4722 111.409 28.2857C111.222 28.0992 111 27.9519 110.755 27.8525C110.51 27.7531 110.248 27.7037 109.984 27.7071M100.833 44.9262C97.8213 44.9262 95.4253 42.1114 95.4253 38.6363C95.4253 35.1612 97.8335 32.3446 100.833 32.3446C103.83 32.3446 106.191 35.1247 106.191 38.6346C106.191 42.1462 103.783 44.9262 100.833 44.9262Z" fill="black"/>
<path d="M48.1656 16.8735H46.4072C46.1431 16.8687 45.8806 16.9168 45.6353 17.015C45.39 17.1132 45.1669 17.2594 44.9789 17.4451C44.6002 17.8205 44.3882 18.3313 44.3969 18.863V29.648C42.6375 28.1048 40.3777 27.2528 38.0374 27.2501C32.3313 27.2762 27.6955 32.3568 27.6955 38.5043C27.6955 44.6517 32.3192 49.8279 38.027 49.8279C40.3801 49.8182 42.6522 48.9677 44.4334 47.4301L46.2143 49.4195H48.1656C48.4289 49.4262 48.6909 49.3794 48.9356 49.2819C49.1804 49.1845 49.4028 49.0385 49.5896 48.8528C49.7763 48.667 49.9235 48.4453 50.0222 48.2011C50.1209 47.9568 50.169 47.6951 50.1638 47.4318V18.863C50.1742 18.333 49.9657 17.8205 49.5904 17.4451C49.4034 17.2592 49.1809 17.1128 48.9361 17.0146C48.6913 16.9164 48.4293 16.8684 48.1656 16.8735ZM39.0139 44.8811C36.0045 44.8811 33.6084 42.0645 33.6084 38.5894C33.6084 35.1143 36.0167 32.3099 39.0139 32.3099C42.0129 32.3099 44.3725 35.1247 44.3725 38.5894C44.3725 42.0523 41.9643 44.8811 39.0139 44.8811ZM21.35 25.5022C22.0234 25.5055 22.6827 25.3092 23.2446 24.9381C23.8065 24.567 24.2458 24.0377 24.5071 23.4171C25.0388 22.1487 24.7504 20.6891 23.7774 19.7161C23.2999 19.2401 22.6923 18.9158 22.031 18.7841C21.3697 18.6524 20.6842 18.7191 20.0607 18.9759C19.4385 19.2308 18.9062 19.6649 18.5312 20.223C18.1562 20.7811 17.9556 21.4381 17.9548 22.1105C17.9548 23.9783 19.4734 25.4952 21.35 25.5022ZM20.4708 49.3848H22.3022C22.8339 49.3935 23.3482 49.1884 23.727 48.8114C23.9131 48.6262 24.0599 48.4053 24.1584 48.162C24.257 47.9186 24.3053 47.6578 24.3004 47.3953V29.707C24.3052 29.4438 24.2569 29.1822 24.1583 28.938C24.0598 28.6938 23.9131 28.472 23.727 28.2857C23.54 28.0992 23.3177 27.9519 23.073 27.8525C22.8283 27.7531 22.5662 27.7037 22.3022 27.7071H20.4691C20.205 27.7037 19.9429 27.7531 19.6982 27.8525C19.4535 27.9519 19.2312 28.0992 19.0443 28.2857C18.8579 28.4722 18.7111 28.6943 18.6125 28.9388C18.514 29.1833 18.4658 29.4452 18.4709 29.7088V47.3953C18.4605 47.9253 18.6672 48.4378 19.0443 48.8131C19.4213 49.1885 19.9356 49.3935 20.4691 49.3848M65.3952 68.9409C66.2751 68.9402 67.1197 68.5947 67.7479 67.9785C68.3761 67.3623 68.7379 66.5246 68.7556 65.6448C68.7654 65.1978 68.6817 64.7537 68.5096 64.341C68.3375 63.9284 68.081 63.5563 67.7565 63.2487L62.94 58.5278C62.6293 58.2034 62.2551 57.9465 61.8408 57.7731C61.4265 57.5998 60.9809 57.5136 60.5318 57.52C59.6528 57.5238 58.8099 57.8703 58.1824 58.4859C57.5549 59.1014 57.1921 59.9374 57.1713 60.8161C57.154 61.7214 57.5206 62.5919 58.1826 63.214L62.9261 68.0061C63.5638 68.6386 64.436 68.9809 65.3361 68.9531M60.6516 11.362C61.5569 11.3741 62.4292 11.0145 63.0599 10.3681L67.8764 5.63327C68.5193 5.02513 68.879 4.17894 68.8755 3.298C68.8677 2.8527 68.7713 2.41341 68.5916 2.00586C68.412 1.5983 68.1529 1.23068 67.8295 0.924511C67.505 0.617714 67.123 0.378223 66.7055 0.219864C66.288 0.0615057 65.8432 -0.0125844 65.3969 0.00187134C64.9511 -0.0102652 64.5075 0.0685175 64.0932 0.233416C63.6789 0.398314 63.3025 0.645873 62.9869 0.960999L58.2434 5.75143C57.9147 6.0567 57.6545 6.42832 57.4802 6.84169C57.3058 7.25506 57.2213 7.70075 57.2321 8.14925C57.2534 9.0274 57.6161 9.86271 58.2432 10.4778C58.8703 11.0929 59.7124 11.4394 60.5908 11.4436M8.10465 11.362C8.98365 11.3582 9.8265 11.0116 10.454 10.3961C11.0816 9.78061 11.4443 8.94461 11.4651 8.06584C11.4671 7.62783 11.3783 7.19414 11.2043 6.79219C11.0302 6.39024 10.7747 6.02875 10.4538 5.73058L5.71031 0.960999C5.40187 0.652784 5.03513 0.40908 4.6315 0.244108C4.22787 0.0791357 3.79543 -0.00380203 3.3594 0.000133791C2.47947 0.00132783 1.63503 0.347264 1.00716 0.963763C0.379295 1.58026 0.0179888 2.41824 0.00071813 3.298C-0.0183949 4.20153 0.344753 5.07031 1.00155 5.69409L5.81804 10.4863C6.44877 11.1344 7.31928 11.494 8.22628 11.4819M3.36114 68.9409C3.80589 68.9554 4.24891 68.8789 4.66303 68.7161C5.07715 68.5532 5.45364 68.3075 5.76939 67.994L10.5129 63.2001C11.1766 62.5798 11.5433 61.7092 11.5242 60.804C11.5029 59.9261 11.1405 59.0911 10.5138 58.476C9.88702 57.861 9.04531 57.5143 8.1672 57.5096C7.27932 57.5131 6.43139 57.8745 5.81977 58.5156L1.00155 63.3078C0.344753 63.9333 -0.0183949 64.8021 0.00071813 65.7056C0.0188924 66.5851 0.380834 67.4224 1.00898 68.0382C1.63712 68.654 2.48149 68.9993 3.36114 69" fill="#5500FF"/>
</svg>
