<svg width="80" height="80" viewBox="0 0 80 80" fill="none" xmlns="http://www.w3.org/2000/svg">
<g id="cara 1" clip-path="url(#clip0_20_56)">
<g id="Group">
<path id="Vector" d="M13.0028 70.7915V78.6668C13.0028 79.0204 13.1433 79.3595 13.3933 79.6095C13.6433 79.8595 13.9824 80 14.336 80C14.6896 80 15.0287 79.8595 15.2787 79.6095C15.5287 79.3595 15.6692 79.0204 15.6692 78.6668V70.7915C15.6692 64.6596 20.6312 59.6975 26.7635 59.6975C29.6651 59.6975 32.2978 58.2193 33.8058 55.743C33.8969 55.5935 33.9576 55.4275 33.9846 55.2545C34.0115 55.0816 34.0041 54.905 33.9627 54.7348C33.9214 54.5647 33.847 54.4044 33.7437 54.2631C33.6404 54.1217 33.5102 54.0021 33.3607 53.9111C32.7322 53.5276 31.9118 53.7271 31.5287 54.3562C30.5085 56.0312 28.727 57.0311 26.7635 57.0311C19.158 57.0307 13.0028 63.1854 13.0028 70.7915ZM37.8544 56.4086C40.6453 57.0169 43.478 56.3996 45.7252 54.8566C45.3371 53.9966 45.1011 53.0758 45.0278 52.1351C33.6002 55.4989 22.1685 46.874 22.1685 35.0264C22.1685 23.7192 22.1547 23.8992 22.2005 23.4356C22.376 21.5979 25.0312 21.8479 24.8541 23.697C24.8242 23.9993 24.8349 24.2638 24.8349 35.0262C24.8349 43.3883 31.6379 50.1913 40 50.1913C48.3621 50.1913 55.1651 43.3883 55.1651 35.0262C55.1651 32.0228 55.1971 29.6971 55.2076 27.9531C55.2346 23.5777 51.1885 20.2531 46.8101 21.3026C40.6351 22.7833 38.1463 26.6349 30.2315 26.2663C29.8783 26.2497 29.5462 26.0935 29.3082 25.832C29.0702 25.5706 28.9457 25.2253 28.9623 24.8721C28.9968 24.1367 29.6171 23.5722 30.3565 23.6029C37.4917 23.9383 39.4695 20.3212 46.1883 18.7099C52.263 17.2527 57.9111 21.8746 57.874 27.9696C57.865 29.3871 57.8463 30.9396 57.837 32.8517C58.7245 32.389 59.3315 31.4711 59.3315 30.4152C59.3315 30.3847 59.3313 23.4902 59.3318 23.4599C59.3986 20.438 58.9682 12.845 53.5401 7.61254C47.4755 1.76682 37.987 1.76465 30.6095 4.33622L31.6752 4.77484C32.9476 5.29829 32.6816 7.18625 31.3097 7.33324L28.9663 7.58421C24.4561 8.06716 20.4675 10.4191 17.9121 14.0737C19.5893 16.1117 20.5022 18.6484 20.5022 21.3209V30.415C20.5022 30.7686 20.3617 31.1077 20.1117 31.3577C19.8617 31.6077 19.5226 31.7482 19.169 31.7482C18.8154 31.7482 18.4763 31.6077 18.2263 31.3577C17.9763 31.1077 17.8358 30.7686 17.8358 30.415V21.3209C17.8358 19.004 16.9411 16.8203 15.3164 15.1723C14.8641 14.714 14.8086 13.9744 15.1241 13.4653C17.7821 9.20254 21.7374 6.45783 26.2514 5.35695C25.5212 4.73401 25.6648 3.57663 26.5101 3.14918C30.3858 1.19155 35.9146 -0.182645 41.176 0.0198344C54.4866 0.535781 62.2783 10.4764 61.9975 23.5041V30.4153C61.9975 32.9659 60.2131 35.1093 57.8178 35.685C57.5693 42.4944 53.4851 48.3415 47.6657 51.124V51.4748C47.6657 54.5485 50.1563 57.0312 53.2363 57.0312C60.8576 57.0312 66.997 63.2008 66.997 70.7916V78.667C66.997 79.0206 66.8565 79.3597 66.6065 79.6097C66.3565 79.8597 66.0174 80.0002 65.6638 80.0002C65.3102 80.0002 64.9711 79.8597 64.7211 79.6097C64.4711 79.3597 64.3306 79.0206 64.3306 78.667V70.7916C64.3306 64.6601 59.3686 59.6976 53.2363 59.6976C50.966 59.6976 48.8041 58.7877 47.2049 57.0739C44.3627 59.0139 40.7941 59.7784 37.2866 59.014C36.9411 58.9387 36.6397 58.7293 36.4487 58.4318C36.2576 58.1342 36.1926 57.773 36.2679 57.4275C36.4247 56.7079 37.1355 56.2513 37.8544 56.4086ZM26.5014 73.1674H30.501C30.8546 73.1674 31.1937 73.3078 31.4437 73.5579C31.6937 73.8079 31.8342 74.147 31.8342 74.5006C31.8342 74.8542 31.6937 75.1933 31.4437 75.4433C31.1937 75.6933 30.8546 75.8338 30.501 75.8338H26.5014C26.1478 75.8338 25.8087 75.6933 25.5587 75.4433C25.3087 75.1933 25.1682 74.8542 25.1682 74.5006C25.1682 74.147 25.3087 73.8079 25.5587 73.5579C25.8087 73.3078 26.1478 73.1674 26.5014 73.1674Z" fill="#5500FF"/>
</g>
</g>
<defs>
<clipPath id="clip0_20_56">
<rect width="80" height="80" fill="white" transform="matrix(-1 0 0 1 80 0)"/>
</clipPath>
</defs>
</svg>
