<svg width="40" height="40" viewBox="0 0 40 40" fill="none" xmlns="http://www.w3.org/2000/svg">
<g id="Group">
<path id="Vector" d="M38.9834 34.2749L30.5304 25.8219C32.3383 23.1047 33.3016 19.9133 33.2992 16.6496C33.2992 7.46902 25.8302 0 16.6496 0C7.46902 0 0 7.46902 0 16.6496C0 25.8302 7.46902 33.2992 16.6496 33.2992C19.9133 33.3016 23.1047 32.3383 25.8219 30.5304L34.2749 38.9834C34.5821 39.3015 34.9495 39.5551 35.3558 39.7297C35.762 39.9042 36.199 39.996 36.6411 39.9999C37.0833 40.0037 37.5218 39.9195 37.931 39.752C38.3402 39.5846 38.712 39.3373 39.0247 39.0247C39.3373 38.712 39.5846 38.3402 39.752 37.931C39.9195 37.5218 40.0037 37.0833 39.9999 36.6411C39.996 36.199 39.9042 35.762 39.7297 35.3558C39.5551 34.9495 39.3015 34.5821 38.9834 34.2749ZM4.99488 16.6496C4.99488 10.2229 10.2229 4.99488 16.6496 4.99488C23.0764 4.99488 28.3043 10.2229 28.3043 16.6496C28.3043 23.0764 23.0764 28.3043 16.6496 28.3043C10.2229 28.3043 4.99488 23.0764 4.99488 16.6496Z" fill="#5500FF"/>
</g>
</svg>
