<?xml version="1.0" encoding="UTF-8"?>
<svg width="576px" height="419px" viewBox="0 0 576 419" version="1.1" xmlns="http://www.w3.org/2000/svg" xmlns:xlink="http://www.w3.org/1999/xlink">
    <!-- Generator: Sketch 54 (76480) - https://sketchapp.com -->
    <title>Group 11</title>
    <desc>Created with Sketch.</desc>
    <defs>
        <filter x="-1.9%" y="-3.3%" width="103.9%" height="106.7%" filterUnits="objectBoundingBox" id="filter-1">
            <feGaussianBlur stdDeviation="3.6" in="SourceGraphic"></feGaussianBlur>
        </filter>
        <polygon id="path-2" points="0 0.325 544.86189 0.325 544.86189 323.536036 0 323.536036"></polygon>
        <polygon id="path-4" points="1.05613673 0.129268018 1.79023592 0.129268018 1.79023592 1.59323198 1.05613673 1.59323198"></polygon>
        <filter x="-3.9%" y="-6.7%" width="107.8%" height="113.4%" filterUnits="objectBoundingBox" id="filter-6">
            <feGaussianBlur stdDeviation="5" in="SourceGraphic"></feGaussianBlur>
        </filter>
        <path d="M227.684605,2.24805797 L56.1274454,101.99971 L3.3542605,132.684986 C-0.912596639,135.166551 -0.910394958,139.174725 3.3432521,141.670609 L3.3432521,141.670609 L149.534849,226.122029 C153.836933,228.549623 160.708378,228.544116 164.969731,226.09229 L164.969731,226.09229 L277.122244,160.879884 L389.235126,95.6906087 C393.521798,93.1991304 393.492076,89.157913 389.183387,86.6697391 L389.183387,86.6697391 L260.162697,12.137971 L243.133798,2.30092754 C240.977252,1.0595942 238.163504,0.438376812 235.351958,0.438376812 L235.351958,0.438376812 C232.582244,0.438376812 229.814731,1.04086957 227.684605,2.24805797" id="path-7"></path>
        <path d="M194.630437,1.45882966 C195.788101,0.787807603 197.306854,0.452296576 198.828582,0.452296576 C200.349318,0.452296576 201.872039,0.787807603 203.037639,1.45783995 L209.250536,5.03662424 L242.445838,24.1587734 C244.778031,25.5018072 244.795887,27.6692678 242.497422,29.0123016 L209.062056,48.3977131 L50.2081056,140.498954 C47.8957532,141.840008 44.1321044,141.844957 41.79396,140.502913 L2.32028844,117.76536 C0.0496000095,116.420347 0.062496012,114.267732 2.35897645,112.937564" id="path-9"></path>
        <path d="M1.95225637,70.3999126 L121.508119,1.0827406 C123.830392,-0.26326234 127.593048,-0.26326234 129.924249,1.07878177 L148.221692,11.6181827 C150.552893,12.9612166 150.570749,15.139564 148.248476,16.4855669 L28.6926135,85.8027389 C26.377285,87.1457727 22.6086763,87.1428036 20.2774759,85.7997698 L1.98003238,75.2603688" id="path-11"></path>
        <polyline id="path-13" points="0 125.264378 214.641065 0.816509137 351.123427 79.4319882 136.482362 203.879857"></polyline>
        <polyline id="path-15" points="0 125.264378 214.641065 0.816509137 351.123427 79.4319882 136.482362 203.879857"></polyline>
        <polyline id="path-17" points="0 125.264378 214.641065 0.816509137 351.123427 79.4319882 136.482362 203.879857"></polyline>
        <polyline id="path-19" points="0 125.264378 214.641065 0.816509137 351.123427 79.4319882 136.482362 203.879857"></polyline>
        <polyline id="path-21" points="0 125.264378 214.641065 0.816509137 351.123427 79.4319882 136.482362 203.879857"></polyline>
        <polyline id="path-23" points="0 125.264378 214.641065 0.816509137 351.123427 79.4319882 136.482362 203.879857"></polyline>
        <polyline id="path-25" points="0 125.264378 214.641065 0.816509137 351.123427 79.4319882 136.482362 203.879857"></polyline>
        <filter x="-50.0%" y="-40.9%" width="200.1%" height="181.8%" filterUnits="objectBoundingBox" id="filter-27">
            <feGaussianBlur stdDeviation="2.7" in="SourceGraphic"></feGaussianBlur>
        </filter>
        <filter x="-23.7%" y="-88.2%" width="147.5%" height="276.5%" filterUnits="objectBoundingBox" id="filter-28">
            <feGaussianBlur stdDeviation="2.7" in="SourceGraphic"></feGaussianBlur>
        </filter>
        <filter x="-15.8%" y="-59.3%" width="131.5%" height="218.6%" filterUnits="objectBoundingBox" id="filter-29">
            <feGaussianBlur stdDeviation="1.8" in="SourceGraphic"></feGaussianBlur>
        </filter>
        <filter x="-33.9%" y="-27.7%" width="167.8%" height="155.3%" filterUnits="objectBoundingBox" id="filter-30">
            <feGaussianBlur stdDeviation="1.8" in="SourceGraphic"></feGaussianBlur>
        </filter>
        <filter x="-2.2%" y="-3.8%" width="104.4%" height="107.6%" filterUnits="objectBoundingBox" id="filter-31">
            <feGaussianBlur stdDeviation="3" in="SourceGraphic"></feGaussianBlur>
        </filter>
        <polyline id="path-32" points="1.21746763 38.2504696 66.9741148 76.1812435 132.305095 38.2504696 66.5469592 0.321182609"></polyline>
        <path d="M30.1911135,9.37823478 L14.2226414,18.5512696 C14.2226414,18.5512696 -5.89236473,34.0334609 2.9871119,37.8311478 L2.9871119,37.8311478 C3.08683113,37.8742696 3.18952705,37.9173913 3.29222298,37.9590261 L3.29222298,37.9590261 L65.2253073,2.00293043 C63.747379,0.703330435 61.2097479,0.0892173913 58.0261742,0.0892173913 L58.0261742,0.0892173913 C50.5189533,0.0877304348 39.4233283,3.49732174 30.1911135,9.37823478" id="path-34"></path>
        <path d="M0.782870383,9.89123478 L12.5973668,16.7044696 C15.5338749,18.3996 30.7968707,9.33065217 28.0404525,7.73812174 L28.0404525,7.73812174 L16.2259561,0.924886957" id="path-36"></path>
        <polyline id="path-38" points="1.21746763 38.2504696 66.9741148 76.1812435 132.305095 38.2504696 66.5469592 0.321182609"></polyline>
        <polyline id="path-40" points="1.21746763 38.2504696 66.9741148 76.1812435 132.305095 38.2504696 66.5469592 0.321182609"></polyline>
        <polyline id="path-42" points="1.21746763 38.2504696 66.9741148 76.1812435 132.305095 38.2504696 66.5469592 0.321182609"></polyline>
        <path d="M1.64164645,1.43193913 C1.14751533,1.71892174 1.15198037,2.16946957 1.64759984,2.45645217 L1.64759984,2.45645217 C2.13428922,2.73748696 2.92460134,2.74194783 3.41724411,2.45645217 L3.41724411,2.45645217 C3.90095679,2.17690435 3.8979801,1.71297391 3.41129072,1.43193913 L3.41129072,1.43193913 C3.16422516,1.2891913 2.84571896,1.21930435 2.52572441,1.21930435 L2.52572441,1.21930435 C2.20424152,1.21930435 1.88424697,1.29216522 1.64164645,1.43193913" id="path-44"></path>
        <path d="M1.83364318,0.776191304 C1.35141884,1.05722609 1.34248876,1.51372174 1.83959657,1.80070435 L1.83959657,1.80070435 C2.32628595,2.08025217 3.12701649,2.08025217 3.60924083,1.80070435 L3.60924083,1.80070435 C4.1018836,1.51372174 4.08997683,1.05722609 3.60328745,0.776191304 L3.60328745,0.776191304 C3.35473354,0.631956522 3.03622734,0.562069565 2.71772114,0.562069565 L2.71772114,0.562069565 C2.39772659,0.562069565 2.08070874,0.631956522 1.83364318,0.776191304" id="path-46"></path>
        <polyline id="path-48" points="1.21746763 38.2504696 66.9741148 76.1812435 132.305095 38.2504696 66.5469592 0.321182609"></polyline>
        <polyline id="path-50" points="1.21746763 38.2504696 66.9741148 76.1812435 132.305095 38.2504696 66.5469592 0.321182609"></polyline>
        <polygon id="path-52" points="1.21746763 38.2504696 66.9741148 76.1812435 132.305095 38.2504696 66.5469592 0.321182609"></polygon>
        <path d="M1.35290718,0.917452174 C0.619152242,1.3442087 0.632547363,2.03415652 1.37374404,2.46091304 L1.37374404,2.46091304 C2.10154559,2.88023478 3.29222298,2.88766957 4.02746627,2.46091304 L4.02746627,2.46091304 C4.76270955,2.03415652 4.74782609,1.3442087 4.01853619,0.924886957 L4.01853619,0.924886957 C3.6464495,0.709278261 3.15827177,0.602217391 2.67455908,0.602217391 L2.67455908,0.602217391 C2.19531144,0.602217391 1.71904048,0.706304348 1.35290718,0.917452174" id="path-54"></path>
        <path d="M1.52704375,0.716713043 C0.79328881,1.14346957 0.806683931,1.83193043 1.54639226,2.25868696 L1.54639226,2.25868696 C2.27717051,2.67949565 3.46635955,2.68544348 4.20160283,2.25868696 L4.20160283,2.25868696 C4.93684612,1.83193043 4.92196266,1.14346957 4.19267275,0.72266087 L4.19267275,0.72266087 C3.81909772,0.507052174 3.33389669,0.398504348 2.84720731,0.398504348 L2.84720731,0.398504348 C2.369448,0.398504348 1.8916887,0.504078261 1.52704375,0.716713043" id="path-56"></path>
        <polyline id="path-58" points="1.21746763 38.2504696 66.9741148 76.1812435 132.305095 38.2504696 66.5469592 0.321182609"></polyline>
        <polygon id="path-60" points="0.21746763 38.2504696 65.9741148 76.1812435 131.305095 38.2504696 65.5469592 0.321182609"></polygon>
        <filter x="-3.7%" y="-6.3%" width="107.3%" height="112.7%" filterUnits="objectBoundingBox" id="filter-62">
            <feGaussianBlur stdDeviation="1.08" in="SourceGraphic"></feGaussianBlur>
        </filter>
    </defs>
    <g id="desktop" stroke="none" stroke-width="1" fill="none" fill-rule="evenodd">
        <g id="03.1-validacao" transform="translate(-343.000000, -798.000000)">
            <g id="Group-11" transform="translate(352.000000, 803.000000)">
                <g id="mobile" transform="translate(0.000000, 29.000000)">
                    <path d="M545.996307,111.448056 L406.047394,30.7321812 C390.491325,21.7598456 365.126959,21.753988 349.673503,30.7263236 L11.5371685,227.028198 C-3.91775336,236.000534 -3.8341974,250.684002 11.7204053,259.654873 L151.669319,340.370748 C167.223921,349.343084 192.598549,349.343084 208.052005,340.370748 L546.188339,144.068873 C561.643261,135.096538 561.55091,120.418927 545.996307,111.448056" id="mobile-shadow" fill="#220066" opacity="0.115071615" filter="url(#filter-1)"></path>
                    <g id="Group-17">
                        <g id="Group-9" transform="translate(0.000000, 0.138964)">
                            <g id="Group-3">
                                <mask id="mask-3" fill="white">
                                    <use xlink:href="#path-2"></use>
                                </mask>
                                <g id="Clip-2"></g>
                                <path d="M10.2795845,236.17955 C10.3425282,236.32009 10.4303566,236.424032 10.5064745,236.544077 C10.4303566,236.424032 10.3425282,236.32009 10.2795845,236.17955 L10.2795845,236.17955 Z M9.91802413,234.198806 C9.91509651,234.92786 10.0380563,235.545653 10.2429893,236.058041 C10.0380563,235.545653 9.91509651,234.92786 9.91802413,234.198806 L9.91802413,234.198806 Z M197.437552,314.90714 C197.436088,314.989122 197.434625,315.071104 197.430233,315.151622 C197.424378,315.156014 197.419987,315.158941 197.412668,315.161869 C197.417059,315.072568 197.436088,314.997905 197.437552,314.905676 C197.436088,314.90714 197.436088,314.90714 197.436088,314.90714 C197.436088,314.901284 197.437552,314.896892 197.437552,314.8925 L197.437552,314.90714 Z M197.430233,315.153086 C197.427306,315.235068 197.422914,315.315586 197.417059,315.39464 C197.40974,315.397568 197.403885,315.400495 197.398029,315.404887 C197.405349,315.31705 197.427306,315.242387 197.430233,315.151622 L197.430233,315.153086 Z M197.355579,315.880676 C197.352651,315.88214 197.349724,315.883604 197.346796,315.885068 C197.349724,315.866036 197.349724,315.841149 197.352651,315.822117 C197.362898,315.757703 197.383391,315.703536 197.39071,315.637658 C197.386319,315.640586 197.379,315.643514 197.373145,315.646441 C197.384855,315.560068 197.408276,315.485405 197.417059,315.396104 L197.417059,315.396104 C197.40974,315.478086 197.400957,315.560068 197.39071,315.639122 C197.380464,315.721104 197.368753,315.801622 197.355579,315.880676 L197.355579,315.880676 Z M150.038019,316.877635 C150.139021,317.10455 150.267836,317.293401 150.403971,317.469077 C150.267836,317.293401 150.139021,317.10455 150.038019,316.877635 L150.038019,316.877635 Z M149.676458,314.896892 C149.673531,315.586419 149.789172,316.167613 149.973611,316.662432 C149.789172,316.167613 149.673531,315.586419 149.676458,314.896892 L149.676458,314.896892 Z M150.466914,317.57009 C150.547424,317.666712 150.651354,317.726734 150.745038,317.804324 C150.651354,317.726734 150.547424,317.666712 150.466914,317.57009 L150.466914,317.57009 Z M544.86189,103.588333 L544.86189,103.586869 C544.86189,103.551734 544.860426,103.509279 544.860426,103.468288 L544.860426,103.477072 C544.856035,102.828536 544.841397,102.51964 544.776989,101.948694 C544.771134,101.882815 544.768206,101.803761 544.763815,101.740811 L544.695016,101.276734 C544.67745,101.143514 544.658421,101.002973 544.637928,100.840473 L544.607188,100.691149 L544.585231,100.541824 C544.59255,100.584279 544.594013,100.616486 544.601332,100.658941 L544.507649,100.206577 C544.495938,100.14509 544.484228,100.080676 544.471054,100.020653 L544.463735,99.9840541 L544.394936,99.6531982 C544.327601,99.376509 544.230989,99.051509 544.138769,98.7426126 C544.116812,98.6694144 544.096319,98.5932883 544.072898,98.5215541 C544.059724,98.4732432 544.042158,98.4161486 544.028984,98.3707658 L543.926517,98.0926126 C543.903097,98.0208784 543.878212,97.9374324 543.856255,97.8700901 L543.723048,97.5406982 C543.684989,97.4426126 543.649858,97.3357432 543.611799,97.2405856 L543.594233,97.1937387 C543.600088,97.2069144 543.603016,97.2186261 543.607408,97.2303378 C543.576668,97.1556757 543.543,97.0912613 543.510796,97.0165991 C543.485912,96.9565766 543.462491,96.8950901 543.436142,96.8350676 L543.384909,96.7047748 C543.34685,96.6242568 543.294153,96.5261712 543.251702,96.4412613 C543.128743,96.1806757 543.007247,95.9376577 542.884287,95.7034234 C542.815488,95.5745946 542.748153,95.4443018 542.676426,95.3169369 C542.625193,95.2247072 542.575424,95.1324775 542.52419,95.0446396 C542.48174,94.9641216 542.430507,94.868964 542.38952,94.7943018 L542.127499,94.3873198 C541.954769,94.1135586 541.792287,93.8661486 541.653225,93.6538739 C541.461466,93.364009 540.906684,92.5749324 539.952282,91.535518 C539.931788,91.5120946 539.908367,91.4842793 539.889338,91.4608559 L539.737102,91.3056757 C539.50582,91.0611937 539.258437,90.8093919 538.984705,90.5429505 L538.804657,90.359955 C538.661204,90.2281982 538.533853,90.114009 538.409429,90.0027477 C538.296716,89.9002703 538.192786,89.7992568 538.075681,89.6953153 C537.980534,89.6118694 537.86782,89.5225676 537.76389,89.4347297 C537.49455,89.2063514 537.244239,89.0028604 536.977826,88.7993694 C536.483059,88.408491 536.017568,88.0717793 535.534512,87.7467793 C535.424727,87.6691892 535.32226,87.595991 535.1993,87.5096171 C535.096834,87.4364189 534.965091,87.3602928 534.847987,87.2841667 L534.995831,87.3749324 L534.809928,87.2548874 C534.74552,87.2153604 534.666475,87.1670495 534.596212,87.1245946 C534.246362,86.9093919 533.884802,86.6971171 533.583257,86.5097297 C533.58033,86.5082658 533.577402,86.5053378 533.573011,86.5038739 L526.595043,82.475045 L519.608292,78.4403604 L512.620078,74.4056757 L505.631863,70.370991 L498.643649,66.3348423 L491.656898,62.3001577 L484.668684,58.265473 L477.680469,54.2307883 L470.692255,50.1961036 L463.705504,46.1614189 L456.71729,42.1267342 L452.671327,39.7902477 C433.056314,28.4635586 413.4413,17.1383333 393.824823,5.81164414 L393.824823,5.81164414 C393.81604,5.80725225 393.808721,5.8013964 393.799938,5.7970045 L393.799938,5.7970045 C393.797011,5.79554054 393.794083,5.79407658 393.791155,5.79261261 C393.461799,5.60522523 393.076818,5.40173423 392.688909,5.19970721 C392.504469,5.10308559 392.321493,5.00646396 392.137054,4.91277027 C391.961397,4.8220045 391.790131,4.73416667 391.633504,4.65218468 L391.069938,4.40038288 C390.851831,4.29790541 390.63226,4.20128378 390.411225,4.10466216 L389.707134,3.78844595 C389.311906,3.62594595 388.834705,3.44734234 388.369214,3.27459459 C388.197949,3.21018018 388.02522,3.13990991 387.853954,3.07842342 L388.238936,3.21457207 L387.801257,3.05792793 C387.795402,3.05646396 387.789547,3.05353604 387.783692,3.05207207 L387.463118,2.93788288 L387.397247,2.91592342 L387.256721,2.86761261 C387.199633,2.84858108 387.139617,2.83394144 387.081064,2.81637387 C386.545311,2.63484234 386.009558,2.46502252 385.476732,2.30837838 L385.334743,2.26445946 C385.289365,2.25128378 385.236668,2.23810811 385.189826,2.22493243 C383.254673,1.67009009 381.348796,1.26896396 379.521965,0.983490991 C378.974501,0.894189189 378.418255,0.823918919 377.862008,0.752184685 C377.740512,0.736081081 377.617552,0.719977477 377.49752,0.705337838 C373.016807,0.156351351 368.236013,0.172454955 363.403987,0.941036036 C362.865306,1.02155405 362.372003,1.10207207 361.918223,1.18259009 L361.830394,1.19722973 C361.787944,1.20601351 361.73671,1.21626126 361.692796,1.22358108 C360.742786,1.39925676 359.974287,1.56761261 359.482448,1.68765766 C358.684673,1.8809009 358.015713,2.05804054 357.406769,2.22932432 L357.269172,2.26592342 C357.174024,2.29373874 357.065702,2.32740991 356.963236,2.35961712 C356.647054,2.45331081 356.339654,2.5470045 356.046893,2.64362613 L356.341118,2.54554054 L355.358903,2.86614865 C355.306206,2.88664414 355.262292,2.90274775 355.211059,2.92177928 L355.877091,2.70072072 C355.739493,2.74463964 355.604823,2.79148649 355.470153,2.83833333 C355.366223,2.8720045 355.269611,2.90421171 355.173,2.93495495 C355.186174,2.93056306 355.197885,2.92617117 355.211059,2.92177928 L354.95782,3.00522523 L353.91559,3.40488739 C353.59648,3.5263964 353.267123,3.6522973 352.907027,3.79283784 C352.2893,4.03146396 351.753547,4.27448198 351.12411,4.5906982 C351.023107,4.64047297 350.913322,4.6961036 350.802072,4.7531982 C350.74352,4.78101351 350.680576,4.81029279 350.626416,4.83664414 C350.078952,5.1309009 349.349976,5.52617117 348.802512,5.82042793 L315.036877,25.4448649 L281.271241,45.0693018 L247.505606,64.6937387 L213.739971,84.3181757 L179.974335,103.942613 L146.2087,123.56705 L112.443064,143.191486 L78.677429,162.815923 L44.9117936,182.44036 L11.147622,202.064797 C10.0497668,202.726509 9.50669437,203.073468 8.85237265,203.550721 C8.37078016,203.888896 7.90528954,204.24464 7.44858177,204.612095 C7.40320375,204.64723 7.36660858,204.675045 7.31830295,204.713108 L7.15435657,204.858041 C6.82353619,205.133266 6.49857105,205.421667 6.17946113,205.721779 L6.01990617,205.863784 C5.9847748,205.898919 5.9437882,205.941374 5.90719303,205.979437 C5.75056568,206.131689 5.59393834,206.285405 5.44023861,206.443514 C4.96303753,206.923694 4.52682306,207.418514 4.11402949,207.920653 C4.10524665,207.930901 4.095,207.941149 4.08768097,207.951396 L4.06279625,207.983604 C3.55046381,208.611644 3.0879008,209.258716 2.67510724,209.923356 C2.60630831,210.033153 2.52872654,210.159054 2.44675335,210.298131 C2.3516059,210.462095 2.25645845,210.626059 2.16716622,210.79295 C2.1422815,210.836869 2.11886059,210.879324 2.09397587,210.924707 C2.08519303,210.940811 2.07201877,210.961306 2.06323592,210.975946 L2.03981501,211.024257 C1.85537534,211.37268 1.66508043,211.757703 1.48210456,212.158829 L1.47771314,212.167613 C1.47624933,212.170541 1.47478552,212.176396 1.47332172,212.180788 C1.21569169,212.747342 0.97855496,213.341712 0.810217158,213.908266 C0.716533512,214.22009 0.636024129,214.507027 0.564297587,214.776396 L0.470613941,215.107252 C0.333016086,215.688446 0.274463807,215.959279 0.211520107,216.414572 C0.157359249,216.75714 0.116372654,217.085068 0.0900241287,217.408604 C0.0783136729,217.512545 0.0666032172,217.612095 0.0519651475,217.733604 C0.0373270777,218.096667 0.0182975871,218.582703 0.00365951743,218.94723 L-0.000731903485,220.273581 C0.00805093834,220.885518 0.0505013405,221.472568 0.110517426,222.049369 C0.116372654,222.100608 0.122227882,222.151847 0.12808311,222.20455 C0.303739946,223.775383 0.675546917,225.239347 1.281563,226.685743 C1.41916086,227.025383 1.56846917,227.348919 1.72363271,227.669527 C1.72363271,227.670991 1.72509651,227.673919 1.72509651,227.675383 C2.33404021,228.938784 3.05862466,230.07482 3.85200804,231.082027 C4.03352011,231.311869 4.21356836,231.534392 4.39800804,231.748131 C4.47998123,231.843288 4.56195442,231.93991 4.64539142,232.033604 C4.90155764,232.323468 5.15186863,232.588446 5.39193298,232.834392 C5.44170241,232.882703 5.48854424,232.933941 5.53831367,232.982252 C6.10334316,233.55027 6.58347185,233.983604 6.83817426,234.210518 C7.63594906,234.923468 8.80699464,235.746216 9.68235121,236.364009 C10.1405228,236.689009 10.7963083,237.053536 11.2735094,237.347793 L25.2484745,245.417162 L39.2249035,253.487995 L53.2013324,261.557365 L67.1762976,269.626734 L81.1527265,277.697568 L95.1291555,285.766937 L109.104121,293.836306 L123.08055,301.90714 L137.056979,309.976509 L151.031944,318.045878 C151.368619,318.237658 151.768239,318.449932 152.169322,318.659279 C152.352298,318.754437 152.53381,318.852523 152.718249,318.944752 C152.89537,319.035518 153.066635,319.123356 153.224727,319.205338 L153.789756,319.460068 C154.004936,319.559617 154.221579,319.654775 154.438223,319.749932 L155.151097,320.069077 C155.550716,320.234505 156.0367,320.416036 156.509509,320.591712 C156.740791,320.678086 156.973536,320.767387 157.204818,320.849369 C157.267761,320.872793 157.33656,320.89768 157.395113,320.91964 L157.739107,321.029437 C158.283643,321.212432 158.825252,321.38518 159.365397,321.543288 L159.523488,321.593063 C159.573257,321.607703 159.63181,321.622342 159.683043,321.636982 C161.599166,322.183041 163.481622,322.581239 165.292351,322.865248 C170.360051,323.698243 175.893241,323.803649 181.489375,322.909167 C182.019273,322.828649 182.505257,322.749595 182.953182,322.669077 L183.033692,322.655901 C183.074678,322.648581 183.120056,322.639797 183.162507,322.631014 C184.116909,322.455338 184.888335,322.286982 185.381638,322.166937 C186.180877,321.97223 186.849836,321.796554 187.45878,321.623806 L187.596378,321.587207 C187.692989,321.559392 187.801311,321.525721 187.905241,321.493514 C188.429284,321.336869 188.918196,321.180225 189.398324,321.014797 C189.575445,320.956239 189.748174,320.899144 189.907729,320.847905 L190.945568,320.449707 C191.266142,320.326734 191.596962,320.200833 191.959987,320.060293 C192.668469,319.786532 193.273021,319.503986 194.031273,319.114572 C194.100072,319.082365 194.17619,319.04723 194.240598,319.016486 C194.788062,318.720766 195.518501,318.326959 196.064501,318.032703 C196.065965,318.031239 196.067429,318.031239 196.067429,318.029775 C196.067429,318.031239 196.065965,318.031239 196.064501,318.032703 L212.948051,308.219752 L229.830137,298.406802 L246.712223,288.595315 L263.595772,278.782365 L280.479322,268.970878 L297.361408,259.157928 L314.243493,249.346441 L331.127043,239.533491 L348.009129,229.722005 L364.892678,219.909054 L381.774764,210.097568 L398.658314,200.284617 L415.540399,190.473131 L432.422485,180.661644 L449.306035,170.848694 L466.188121,161.035743 L483.07167,151.224257 L499.953756,141.411306 L516.837306,131.59982 L533.719391,121.786869 L533.720855,121.786869 C534.039965,121.59509 534.433729,121.353536 534.862625,121.079775 C535.219794,120.85286 535.541831,120.640586 535.831665,120.438559 C535.853622,120.423919 535.872651,120.412207 535.894609,120.396104 C536.297155,120.113559 536.655788,119.845653 537.004174,119.5675 C537.26766,119.361081 537.538464,119.126847 537.81366,118.894077 C538.093247,118.653986 538.384544,118.402185 538.713901,118.113784 C539.049113,117.800495 539.43263,117.414009 539.798582,117.021667 L539.890802,116.929437 C539.912759,116.90455 539.939107,116.869414 539.961064,116.844527 C540.201129,116.582477 540.433874,116.323356 540.62856,116.086194 C540.826174,115.846104 541.036962,115.563559 541.247751,115.275158 C541.334115,115.163896 541.433654,115.042387 541.511236,114.941374 L542.2973,113.757027 L542.309011,113.735068 L542.317794,113.720428 C542.650078,113.210968 543.02774,112.508266 543.263413,111.956351 C543.463954,111.486419 543.600088,111.170203 543.70841,110.903761 L543.766962,110.763221 C543.771354,110.754437 543.775745,110.739797 543.778673,110.72955 C543.910416,110.394302 543.999708,110.123468 544.122668,109.710631 C544.135842,109.672568 544.151944,109.631577 544.163654,109.594977 C544.153408,109.625721 544.140233,109.655 544.129987,109.685743 C544.184147,109.502748 544.244164,109.300721 544.318818,109.038671 C544.41982,108.693176 544.507649,108.273018 544.580839,107.8675 L544.586694,107.836757 C544.589622,107.820653 544.591086,107.800158 544.594013,107.78259 C544.607188,107.709392 544.620362,107.636194 544.632072,107.565923 C544.636464,107.541036 544.640855,107.519077 544.643783,107.495653 C544.651102,107.441486 544.66574,107.377072 544.673059,107.325833 C544.675987,107.303874 544.67745,107.276059 544.680378,107.252635 C544.692088,107.180901 544.706727,107.094527 544.714046,107.034505 C544.70819,107.072568 544.697944,107.120878 544.690625,107.161869 C544.70819,107.018401 544.725756,106.873468 544.73893,106.718288 C544.765279,106.513333 544.790164,106.303986 544.810657,106.125383 C544.817976,105.918964 544.828223,105.678874 544.837005,105.438784 C544.841397,105.364122 544.851643,105.290923 544.853107,105.216261 L544.853107,105.213333 L544.853107,105.213333 L544.853107,105.211869 C544.857499,105.11232 544.858962,105.01277 544.858962,104.913221 L544.86189,103.586869 L544.86189,103.588333 Z" id="Fill-1" fill="#330099" mask="url(#mask-3)"></path>
                            </g>
                            <g id="Group-6" transform="translate(543.072386, 102.477477)">
                                <mask id="mask-5" fill="white">
                                    <use xlink:href="#path-4"></use>
                                </mask>
                                <g id="Clip-5"></g>
                                <path d="M1.78950402,0.934448198 L1.78657641,0.730957207 C1.78804021,0.810011261 1.78804021,0.902240991 1.78950402,0.991542793 C1.78950402,0.972511261 1.78950402,0.952015766 1.78950402,0.934448198" id="Fill-4" fill="#E4E5E9" mask="url(#mask-5)"></path>
                            </g>
                            <path d="M531.689677,86.9644369 C542.562835,93.2331306 542.619923,103.559932 531.818492,109.83009 C419.266374,175.244392 306.71572,240.658694 194.163602,306.074459 C183.376808,312.353401 165.537392,312.357793 154.683264,306.080315 C108.097607,279.179977 61.5104863,252.281104 14.9248295,225.380766 C4.05167131,219.113536 4.00190188,208.779414 14.8047973,202.510721 C127.356915,137.096419 239.907569,71.6806532 352.459687,6.26488739 C363.246481,-0.0125900901 381.074186,-0.0125900901 391.931242,6.26488739 C438.516899,33.1652252 485.10402,60.0640991 531.689677,86.9644369" id="Fill-7" fill="#4400CC"></path>
                        </g>
                        <g id="Group-16" transform="translate(19.174263, 21.994820)" fill="#5500FF">
                            <g id="Group-12" transform="translate(399.000000, 18.000000)">
                                <path d="M53.1083453,28.1121847 L14.6029029,5.87896396 C13.4538145,5.21432432 11.5903882,5.21432432 10.4486188,5.87896396 C9.30684933,6.54213964 9.3214874,7.61668919 10.4720397,8.27986486 L48.9760182,30.5130856 C50.1163239,31.1718694 51.9709673,31.1777252 53.1127367,30.5130856 C54.2545062,29.8499099 54.2486509,28.7709685 53.1083453,28.1121847 M7.66884933,1.87502252 L5.89325147,0.848783784 C4.7426992,0.185608108 2.88951957,0.191463964 1.74775013,0.85463964 C0.60451689,1.51781532 0.611835925,2.58650901 1.7609244,3.25114865 L3.53652225,4.27592342 C4.67682788,4.93324324 6.53000751,4.9390991 7.67177694,4.27592342 C8.81501019,3.61274775 8.80915496,2.53234234 7.66884933,1.87502252" id="Fill-10"></path>
                            </g>
                            <g id="Group-15">
                                <path d="M480.566949,87.3841104 L333.527538,2.48152027 C328.256369,-0.562060811 319.723839,-0.562060811 314.486337,2.48152027 L4.44616568,182.677917 C-0.791335657,185.721498 -0.763523324,190.66384 4.50764558,193.707421 L151.547056,278.610011 C156.818225,281.653592 165.350755,281.653592 170.588257,278.610011 L480.628428,98.4150788 C485.86593,95.3714977 485.838117,90.4276914 480.566949,87.3841104" id="Fill-13"></path>
                            </g>
                        </g>
                    </g>
                </g>
                <g id="id-verso" transform="translate(20.000000, 0.000000)">
                    <path d="M381.812447,91.9050478 L238.49018,8.84372755 C234.249319,6.38660085 227.408859,6.38660085 223.205938,8.83667495 L3.13645593,137.213787 C-1.0664648,139.663861 -1.04398177,143.64294 3.19547387,146.100066 L146.519146,229.161387 C150.748765,231.612871 157.590631,231.612871 161.793552,229.161387 L381.863034,100.785685 C386.064549,98.3342003 386.043471,94.3565325 381.812447,91.9050478" id="id-sombra" fill="#220066" opacity="0.128882999" filter="url(#filter-6)"></path>
                    <g id="Group-3" transform="translate(8.000000, 0.000000)">
                        <mask id="mask-8" fill="white">
                            <use xlink:href="#path-7"></use>
                        </mask>
                        <g id="Clip-2"></g>
                        <path d="M389.183827,86.6697391 L243.146348,2.30753623 C238.829953,-0.185043478 231.867138,-0.185043478 227.579365,2.30753623 L3.35470084,132.684986 C-0.933072269,135.178667 -0.909954622,139.214377 3.4053395,141.706957 L149.442818,226.069159 C153.751508,228.557333 160.722029,228.561739 165.009802,226.069159 L389.234466,95.6906087 C393.522239,93.198029 393.492516,89.157913 389.183827,86.6697391" id="Fill-1" fill="#C6D8FF" mask="url(#mask-8)"></path>
                    </g>
                    <g id="Group-28" transform="translate(25.613445, 9.913043)">
                        <g id="Group-3" transform="translate(15.872003, 10.070279)">
                            <mask id="mask-10" fill="white">
                                <use xlink:href="#path-9"></use>
                            </mask>
                            <g id="Clip-2"></g>
                            <path d="M242.446235,24.1585754 L203.039028,1.45863172 C200.707827,0.116587608 196.945171,0.116587608 194.629842,1.45863172 L2.35937325,112.937366 C0.0430528082,114.279411 0.0490048094,116.457758 2.38020526,117.799802 L41.7874128,140.499746 C44.1245652,141.845749 47.893174,141.84179 50.2085024,140.499746 L242.479963,29.0220008 C244.796284,27.6789669 244.783388,25.5045784 242.446235,24.1585754 M3.08452539,117.391053 C1.14615702,116.274662 1.13623702,114.458548 3.06170939,113.342157 L195.33317,1.86441201 C197.258643,0.74802134 200.402291,0.74802134 202.34066,1.86441201 L241.747867,24.563366 C243.692187,25.6837155 243.703099,27.4998298 241.777627,28.6162205 L49.5061663,140.094955 C47.5806939,141.211346 44.4370453,141.211346 42.4927249,140.090996 L3.08452539,117.391053" id="Fill-1" fill="#7DACEF" mask="url(#mask-10)"></path>
                        </g>
                        <g id="Group-6" transform="translate(163.680031, 70.442470)">
                            <mask id="mask-12" fill="white">
                                <use xlink:href="#path-11"></use>
                            </mask>
                            <g id="Clip-5"></g>
                            <path d="M148.221792,11.6185786 L129.924348,1.07917765 C127.593148,-0.263856165 123.830491,-0.263856165 121.508218,1.08214678 L1.95235557,70.4003085 C-0.362972869,71.7433423 -0.351068867,73.9177309 1.98013158,75.259775 L20.2775751,85.8001657 C22.6087755,87.1422098 26.3773842,87.1461686 28.6927127,85.8031348 L148.248576,16.4849731 C150.570848,15.1389701 150.552992,12.9606227 148.221792,11.6185786" id="Fill-4" fill="#7DACEF" mask="url(#mask-12)"></path>
                        </g>
                        <g id="Group-9" transform="translate(0.000000, 0.173199)">
                            <mask id="mask-14" fill="white">
                                <use xlink:href="#path-13"></use>
                            </mask>
                            <g id="Clip-8"></g>
                            <path d="M188.891319,114.117692 C187.726711,113.44568 185.844887,113.44568 184.687223,114.117692 L96.0331576,165.51818 C94.8754934,166.190191 94.8814454,167.276891 96.0470456,167.947913 C97.2126458,168.618935 99.0994302,168.622894 100.258086,167.951872 L188.912151,116.550395 C190.068824,115.879373 190.05692,114.788714 188.891319,114.117692" id="Fill-7" fill="#FFFFFF" mask="url(#mask-14)"></path>
                        </g>
                        <g id="Group-12" transform="translate(0.000000, 0.173199)">
                            <mask id="mask-16" fill="white">
                                <use xlink:href="#path-15"></use>
                            </mask>
                            <g id="Clip-11"></g>
                            <path d="M264.594326,53.1983909 C262.839478,52.187899 260.018229,52.1908681 258.281237,53.1983909 L80.4384186,156.310134 C78.7014263,157.317657 78.7044023,158.947706 80.4592506,159.958198 C82.2071549,160.96572 85.0353475,160.96572 86.7723398,159.958198 L264.615158,56.8464548 C266.351158,55.838932 266.34223,54.204924 264.594326,53.1983909" id="Fill-10" fill="#FFFFFF" mask="url(#mask-16)"></path>
                        </g>
                        <g id="Group-15" transform="translate(0.000000, 0.173199)">
                            <mask id="mask-18" fill="white">
                                <use xlink:href="#path-17"></use>
                            </mask>
                            <g id="Clip-14"></g>
                            <path d="M156.919649,150.552705 C155.754049,149.881683 153.860321,149.881683 152.702656,150.552705 L111.072376,174.689705 C109.914712,175.360727 109.926616,176.452375 111.092216,177.123397 C112.257817,177.794419 114.138649,177.794419 115.296313,177.123397 L156.926593,152.986397 C158.085249,152.315375 158.085249,151.223727 156.919649,150.552705" id="Fill-13" fill="#FFFFFF" mask="url(#mask-18)"></path>
                        </g>
                        <g id="Group-18" transform="translate(0.000000, 0.173199)">
                            <mask id="mask-20" fill="white">
                                <use xlink:href="#path-19"></use>
                            </mask>
                            <g id="Clip-17"></g>
                            <path d="M166.373709,155.642378 C165.208108,154.971356 163.327276,154.971356 162.169612,155.642378 L120.53834,179.779378 C119.380676,180.4504 119.386628,181.538089 120.552228,182.209111 C121.717828,182.880133 123.605604,182.884092 124.763269,182.21307 L166.394541,158.07508 C167.551213,157.404058 167.539309,156.3134 166.373709,155.642378" id="Fill-16" fill="#FFFFFF" mask="url(#mask-20)"></path>
                        </g>
                        <g id="Group-21" transform="translate(0.000000, 0.173199)">
                            <mask id="mask-22" fill="white">
                                <use xlink:href="#path-21"></use>
                            </mask>
                            <g id="Clip-20"></g>
                            <path d="M340.091393,83.3908204 L290.860408,55.0337055 C289.688855,54.3587246 287.807031,54.3587246 286.649367,55.0297467 C285.491703,55.7007687 285.491703,56.791427 286.663255,57.4664079 L335.89424,85.8245125 C337.059841,86.4955346 338.947617,86.4915757 340.105281,85.8205537 C341.262945,85.1495316 341.256993,84.0618425 340.091393,83.3908204" id="Fill-19" fill="#FFFFFF" mask="url(#mask-22)"></path>
                        </g>
                        <g id="Group-24" transform="translate(0.000000, 0.173199)">
                            <mask id="mask-24" fill="white">
                                <use xlink:href="#path-23"></use>
                            </mask>
                            <g id="Clip-23"></g>
                            <path d="M278.080271,62.4063377 C276.914671,61.7353156 275.033838,61.7353156 273.876174,62.4063377 L195.730367,107.714182 C194.572703,108.386194 194.578655,109.472893 195.744255,110.143915 C196.908863,110.815927 198.79664,110.819886 199.955296,110.147874 L278.100111,64.83904 C279.257775,64.168018 279.245871,63.0773597 278.080271,62.4063377" id="Fill-22" fill="#FFFFFF" mask="url(#mask-24)"></path>
                        </g>
                        <g id="Group-27" transform="translate(0.000000, 0.173199)">
                            <mask id="mask-26" fill="white">
                                <use xlink:href="#path-25"></use>
                            </mask>
                            <g id="Clip-26"></g>
                            <path d="M327.342703,90.782158 C326.178094,90.111136 324.29627,90.111136 323.138606,90.782158 L144.85534,194.149246 C143.697676,194.821257 143.703628,195.907957 144.869228,196.578979 C146.033836,197.250991 147.91566,197.250991 149.073325,196.578979 L327.356591,93.2118913 C328.514255,92.5408692 328.508303,91.4541698 327.342703,90.782158" id="Fill-25" fill="#FFFFFF" mask="url(#mask-26)"></path>
                        </g>
                    </g>
                </g>
                <g id="line" transform="translate(26.000000, 93.000000)">
                    <g id="line-shadow" opacity="0.252325149" transform="translate(0.000000, 5.400000)">
                        <g id="Group-5" transform="translate(0.000000, 172.800000)"></g>
                        <g id="Group-8" transform="translate(472.263868, 127.800000)"></g>
                        <path d="M304.859036,1.88782555 C304.775209,1.83595926 304.688491,1.78866941 304.600328,1.74290504 C301.721297,-0.0113958086 298.868282,-0.382087206 295.808589,0.365397505 C292.639053,1.05796497 290.807862,2.4293706 290.706691,4.36367797 C290.533256,7.98974156 290.452319,11.6737734 290.77462,15.3578051 C290.822315,16.5125927 291.640353,17.5270363 292.899206,18.2943522 C294.434111,19.2294709 296.625181,19.796949 298.874063,19.8 C303.261983,19.7374554 306.626634,17.7970461 306.713352,15.115254 C306.805851,11.6737734 306.677219,8.23229272 306.667102,4.86403508 C306.558705,3.64365188 305.928556,2.53920508 304.859036,1.88782555" id="Fill-1" fill="#5500FF" filter="url(#filter-27)"></path>
                        <path d="M31.6638652,174.199719 C30.1298519,173.378019 27.9456002,172.908476 25.2774856,172.874533 C19.7703017,172.816547 14.2722761,172.878776 8.65671916,172.878776 C8.1133274,172.816547 7.57909393,172.874533 7.03570217,172.936761 C3.69597979,173.228104 1.42777711,174.208204 0.36083655,175.944947 C-0.483252334,177.685933 0.060139425,179.244476 2.9831597,180.808676 C4.06536407,181.387119 5.79933328,181.971219 8.27512382,182.029204 C14.3180676,182.029204 20.3594849,182.029204 26.3138986,181.971219 C31.1601593,181.914647 34.7013641,179.535819 34.0450201,176.878376 C33.744323,175.78089 32.9216034,174.872919 31.6638652,174.199719" id="Fill-3" fill="#5500FF" filter="url(#filter-28)"></path>
                        <path d="M499.153325,134.024297 C497.958996,133.38504 496.253684,132.963583 494.112128,132.963583 C488.074895,132.963583 482.133757,132.902769 476.096523,133.017326 C471.351239,133.136126 468.01383,135.164211 468.146533,137.656183 C468.20602,138.886611 469.083082,139.960054 470.541292,140.74074 C472.031534,141.538397 474.128855,142.02774 476.578526,142.056026 L494.051115,142.056026 C497.721046,142.056026 500.30647,141.133911 501.703667,139.33494 C503.19696,137.598197 502.332101,135.742654 499.517878,134.23644 C499.401953,134.162897 499.279927,134.092183 499.153325,134.024297" id="Fill-6" fill="#2F0387" filter="url(#filter-29)"></path>
                        <path d="M210.851928,294.051207 C210.365918,293.754207 209.793889,293.489192 209.143008,293.263776 C203.657832,291.265499 197.392746,293.387146 197.103147,297.318207 C196.919638,300.562361 197.037198,303.870484 197.054402,307.114638 C197.06157,308.362038 197.880189,309.478453 199.105967,310.230853 C201.852856,311.915376 204.582541,312.34793 207.726554,311.792007 C210.861964,311.106622 212.788801,309.79373 212.869085,307.737576 C212.96084,304.178146 212.940768,300.562361 212.813173,297.00293 C212.806005,295.836253 212.116415,294.827976 210.851928,294.051207" id="Fill-9" fill="#2F0387" filter="url(#filter-30)"></path>
                    </g>
                    <g id="line-normal">
                        <path d="M304.859036,1.88782555 C304.775209,1.83595926 304.688491,1.78866941 304.600328,1.74290504 C301.721297,-0.0113958086 298.868282,-0.382087206 295.808589,0.365397505 C292.639053,1.05796497 290.807862,2.4293706 290.706691,4.36367797 C290.533256,7.98974156 290.452319,11.6737734 290.77462,15.3578051 C290.822315,16.5125927 291.640353,17.5270363 292.899206,18.2943522 C294.434111,19.2294709 296.625181,19.796949 298.874063,19.8 C303.261983,19.7374554 306.626634,17.7970461 306.713352,15.115254 C306.805851,11.6737734 306.677219,8.23229272 306.667102,4.86403508 C306.558705,3.64365188 305.928556,2.53920508 304.859036,1.88782555" id="Fill-1" fill="#5500FF"></path>
                        <path d="M31.6638652,174.199719 C30.1298519,173.378019 27.9456002,172.908476 25.2774856,172.874533 C19.7703017,172.816547 14.2722761,172.878776 8.65671916,172.878776 C8.1133274,172.816547 7.57909393,172.874533 7.03570217,172.936761 C3.69597979,173.228104 1.42777711,174.208204 0.36083655,175.944947 C-0.483252334,177.685933 0.060139425,179.244476 2.9831597,180.808676 C4.06536407,181.387119 5.79933328,181.971219 8.27512382,182.029204 C14.3180676,182.029204 20.3594849,182.029204 26.3138986,181.971219 C31.1601593,181.914647 34.7013641,179.535819 34.0450201,176.878376 C33.744323,175.78089 32.9216034,174.872919 31.6638652,174.199719" id="Fill-3" fill="#5500FF"></path>
                        <path d="M503.651076,129.524297 C502.456747,128.88504 500.751435,128.463583 498.609879,128.463583 C492.572646,128.463583 486.631508,128.402769 480.594274,128.517326 C475.84899,128.636126 472.511581,130.664211 472.644284,133.156183 C472.703772,134.386611 473.580833,135.460054 475.039043,136.24074 C476.529285,137.038397 478.626606,137.52774 481.076277,137.556026 L498.548866,137.556026 C502.218797,137.556026 504.804221,136.633911 506.201418,134.83494 C507.694711,133.098197 506.829852,131.242654 504.015629,129.73644 C503.899704,129.662897 503.777678,129.592183 503.651076,129.524297" id="Fill-6" fill="#4705CD"></path>
                        <path d="M215.34968,289.551207 C214.863669,289.254207 214.29164,288.989192 213.640759,288.763776 C208.155583,286.765499 201.890497,288.887146 201.600898,292.818207 C201.417389,296.062361 201.534949,299.370484 201.552153,302.614638 C201.559322,303.862038 202.37794,304.978453 203.603718,305.730853 C206.350607,307.415376 209.080292,307.84793 212.224305,307.292007 C215.359715,306.606622 217.286552,305.29373 217.366837,303.237576 C217.458591,299.678146 217.43852,296.062361 217.310924,292.50293 C217.303756,291.336253 216.614166,290.327976 215.34968,289.551207" id="Fill-9" fill="#4705CD"></path>
                    </g>
                </g>
                <g id="id" transform="translate(60.000000, 122.000000)">
                    <g id="Group-3" transform="translate(0.000000, 0.739017)">
                        <path d="M404.48281,89.52466 L252.678885,1.9622513 C248.187055,-0.628026957 240.941783,-0.628026957 236.490138,1.95481652 L3.39717868,137.288677 C-1.0544664,139.871521 -1.03065286,144.066225 3.45968925,146.656503 L155.265103,234.218912 C159.745027,236.803243 166.991787,236.803243 171.443432,234.218912 L404.536391,98.8865383 C408.986548,96.3022078 408.964222,92.1089904 404.48281,89.52466 M237.773093,160.58933 L180.953968,127.816808 C178.481824,126.38933 174.500496,126.38933 172.053654,127.809373 L171.160646,128.328321 C174.100131,126.621295 178.882189,126.621295 181.841022,128.328321 L236.88455,160.077817 C238.350571,160.922408 239.093256,162.03019 239.114093,163.137973 C239.133441,164.266573 238.402663,165.39666 236.92027,166.257608 L182.233946,198.00859 C179.294461,199.71413 174.512403,199.71413 171.555058,198.00859 L172.442113,198.520103 C174.914257,199.946095 178.895584,199.946095 181.352844,198.520103 L237.81179,165.740147 C240.258632,164.320103 240.245236,162.015321 237.773093,160.58933 M116.47581,160.077817 L115.593221,160.590817 C113.137449,162.016808 113.150844,164.320103 115.622988,165.747582 L116.511531,166.259095 C113.551209,164.552069 113.536325,161.784843 116.47581,160.077817" id="Fill-1" fill="#220066" opacity="0.0602213542" filter="url(#filter-31)"></path>
                        <path d="M417.68371,90.02466 L265.879785,2.4622513 C261.387954,-0.128026957 254.142682,-0.128026957 249.691037,2.45481652 L16.5980782,137.788677 C12.1464331,140.371521 12.1702467,144.566225 16.6605888,147.156503 L168.466002,234.718912 C172.945926,237.303243 180.192686,237.303243 184.644331,234.718912 L417.73729,99.3865383 C422.187447,96.8022078 422.165122,92.6089904 417.68371,90.02466 M129.67671,158.577817 L128.79412,159.090817 C126.338348,160.516808 126.351743,162.820103 128.823887,164.247582 L129.71243,164.759095 C126.752108,163.052069 126.737225,160.284843 129.67671,158.577817" id="Fill-1" fill="#C6D8FF"></path>
                    </g>
                    <g id="Group-6" transform="translate(123.137658, 124.156409)">
                        <mask id="mask-33" fill="white">
                            <use xlink:href="#path-32"></use>
                        </mask>
                        <g id="Clip-5"></g>
                        <path d="M126.947939,35.1604252 L71.9044122,3.41092957 C68.9455788,1.70390348 64.1635208,1.70390348 61.224036,3.41092957 L6.53920022,35.1604252 C3.59971542,36.8674513 3.61459888,39.6346774 6.57492054,41.3417035 L61.6169595,73.0911991 C63.2005604,74.0041904 65.3065711,74.427973 67.3723963,74.3640339 C65.9748388,73.2547643 65.9480485,71.6131643 66.7190121,69.7544687 C64.4641668,68.6556078 56.8527616,64.889147 48.5909489,60.1234513 C36.0040005,52.8626426 21.9034036,43.2821817 22.9080376,37.2748774 C23.7861622,32.0482252 29.502902,26.1509557 37.0071462,21.6291209 L36.975891,21.6112774 L38.2677759,20.8618513 L38.2945662,20.8767209 C45.2481221,16.9362861 53.5218416,14.2121817 60.8638561,14.2121817 C75.2204487,14.204747 120.335215,37.2748774 120.335215,37.2748774 C119.99736,37.355173 119.632715,37.4547991 119.24128,37.5752426 C123.350605,37.016147 126.861615,37.1960687 129.177483,38.2205817 C129.156646,37.1113122 128.413961,36.0050165 126.947939,35.1604252" id="Fill-4" fill="#C6D8FF" mask="url(#mask-33)"></path>
                    </g>
                    <g id="Group-9" transform="translate(188.624915, 161.330322)">
                        <mask id="mask-35" fill="white">
                            <use xlink:href="#path-34"></use>
                        </mask>
                        <g id="Clip-8"></g>
                        <path d="M63.6894823,1.04681739 C61.3751032,0.0223043478 57.8640932,-0.159104348 53.7532795,0.401478261 C46.6657724,1.36651304 37.7982025,4.53373043 30.189774,9.37823478 L32.5041532,10.7120348 C35.2620597,12.3045652 19.9990639,21.373513 17.0610675,19.6798696 L14.6663176,18.297 L14.2227902,18.5512696 C14.2227902,18.5512696 3.68976039,26.6596435 1.23249993,32.5807043 C0.461536323,34.4394 0.488326564,36.081 1.8843958,37.1902696 C3.67934197,37.1352522 5.44303285,36.7099826 6.8108235,35.9174348 L61.4956593,4.16645217 C62.9780526,3.30550435 63.7088309,2.17541739 63.6894823,1.04681739" id="Fill-7" fill="#DFE2EC" mask="url(#mask-35)"></path>
                    </g>
                    <g id="Group-12" transform="translate(193.089955, 164.304235)">
                        <mask id="mask-37" fill="white">
                            <use xlink:href="#path-36"></use>
                        </mask>
                        <g id="Clip-11"></g>
                        <path d="M28.0397083,7.73886522 L25.7253292,6.40506522 L20.1544473,3.19175217 C19.6841298,3.57687391 19.15279,3.94415217 18.560428,4.28912609 C18.749448,4.29061304 18.938468,4.32481304 19.0992095,4.39321304 C19.1364182,4.40808261 19.1706501,4.42592609 19.2019054,4.44376957 C19.5219,4.62815217 19.5591086,4.92554348 19.2718577,5.1366913 C14.7249584,8.60278696 11.344923,10.3722652 5.73980919,12.7499087 L10.2003844,15.3238304 L12.5966226,16.705213 C15.5346191,18.3988565 30.7976148,9.3299087 28.0397083,7.73886522 M16.4707892,5.50396957 L7.99465449,10.4243087 C11.1380428,8.96857826 13.6310236,7.55448261 16.4707892,5.50396957" id="Fill-10" fill="#C6B8E5" mask="url(#mask-37)"></path>
                    </g>
                    <g id="Group-22" transform="translate(123.137658, 124.156409)">
                        <g id="Group-15">
                            <mask id="mask-39" fill="white">
                                <use xlink:href="#path-38"></use>
                            </mask>
                            <g id="Clip-14"></g>
                            <path d="M71.0535243,39.2626409 L59.8522268,32.8018148 C59.4935352,32.5951278 58.9145684,32.6010757 58.5677836,32.8018148 C58.2105803,33.0085017 58.2120687,33.3386061 58.5722486,33.545293 L69.7735461,40.0061191 C70.3852566,40.3600148 69.3716925,41.6462322 68.4489175,42.4016061 C68.1869685,42.6142409 68.2197121,42.9012235 68.53673,43.0841191 L68.652821,43.1391365 C69.0650931,43.3041887 69.6321532,43.2551191 69.9164274,43.0172061 C70.4507439,42.5845017 73.0077236,40.3897539 71.0535243,39.2626409" id="Fill-13" fill="#5B6AC3" mask="url(#mask-39)"></path>
                        </g>
                        <g id="Group-18">
                            <mask id="mask-41" fill="white">
                                <use xlink:href="#path-40"></use>
                            </mask>
                            <g id="Clip-17"></g>
                            <path d="M76.7205534,41.0059487 C76.6014856,40.9375487 76.4496743,40.8869922 76.277026,40.8661748 C75.7814066,40.7977748 75.3081123,40.9747226 75.1935096,41.2617052 C74.2796647,43.6393487 71.9176584,45.0103226 67.9601445,45.4727661 C67.4660134,45.5292704 67.1504838,45.8088183 67.2472264,46.0958009 C67.27997,46.1984009 67.3752242,46.2905922 67.5017337,46.363453 C67.7026605,46.4794357 68.0077716,46.5463487 68.314371,46.503227 C72.9981982,45.9619748 75.9064277,44.2727922 76.9646422,41.4936704 C77.0375712,41.3092878 76.9333869,41.1293661 76.7205534,41.0059487" id="Fill-16" fill="#5B6AC3" mask="url(#mask-41)"></path>
                        </g>
                        <g id="Group-21">
                            <mask id="mask-43" fill="white">
                                <use xlink:href="#path-42"></use>
                            </mask>
                            <g id="Clip-20"></g>
                            <path d="M89.1534578,44.5911496 C89.1222025,44.5733061 89.0894589,44.5569496 89.0522502,44.540593 C88.8915088,44.472193 88.7010004,44.437993 88.5134687,44.4365061 C88.2321712,44.4350191 87.9538503,44.5049061 87.7782254,44.64468 C87.3153496,44.9970887 86.8643805,45.3316539 86.4238299,45.6513496 C83.5840643,47.7018626 81.0910835,49.1159583 77.9476952,50.5716887 C76.4653019,51.2586626 74.8370506,51.9560452 72.9617337,52.7337235 C72.8932697,52.7619757 72.8352242,52.7961757 72.7846204,52.8318626 C72.5330898,53.0147583 72.5062996,53.2720017 72.7459234,53.469767 L72.8501077,53.5441148 C73.1567071,53.7210626 73.662745,53.7448539 74.0199482,53.5991322 C74.6004034,53.3582452 75.1555568,53.124793 75.6913616,52.8972887 C81.2964754,50.5211322 84.6779992,48.750167 89.2248985,45.2840713 C89.510661,45.0729235 89.4734524,44.7770191 89.1534578,44.5911496" id="Fill-19" fill="#5B6AC3" mask="url(#mask-43)"></path>
                        </g>
                    </g>
                    <g id="Group-25" transform="translate(169.276407, 170.252061)">
                        <mask id="mask-45" fill="white">
                            <use xlink:href="#path-44"></use>
                        </mask>
                        <g id="Clip-24"></g>
                        <path d="M3.41143955,1.43164174 C2.91582009,1.14614609 2.12550797,1.15209391 1.64179528,1.43164174 C1.14766417,1.71862435 1.15064086,2.16917217 1.64774867,2.45615478 C2.13443805,2.73570261 2.92326182,2.74165043 3.41739294,2.45615478 C3.90110563,2.17512 3.89812894,1.71267652 3.41143955,1.43164174" id="Fill-23" fill="#5B6AC3" mask="url(#mask-45)"></path>
                    </g>
                    <g id="Group-28" transform="translate(203.508382, 150.921626)">
                        <mask id="mask-47" fill="white">
                            <use xlink:href="#path-46"></use>
                        </mask>
                        <g id="Clip-27"></g>
                        <path d="M3.60343628,0.776042609 C3.10781682,0.490546957 2.32792313,0.490546957 1.83379201,0.776042609 C1.35156767,1.05559043 1.34263759,1.51357304 1.8397454,1.80055565 C2.32643478,2.08010348 3.12716533,2.08010348 3.60938967,1.80055565 C4.10203244,1.51357304 4.09012566,1.05559043 3.60343628,0.776042609" id="Fill-26" fill="#5B6AC3" mask="url(#mask-47)"></path>
                    </g>
                    <g id="Group-38" transform="translate(123.137658, 124.156409)">
                        <g id="Group-31">
                            <mask id="mask-49" fill="white">
                                <use xlink:href="#path-48"></use>
                            </mask>
                            <g id="Clip-30"></g>
                            <path d="M82.3898149,25.8241226 C81.4625749,25.2888183 80.0932959,24.8338096 78.1926771,25.6888096 C77.9917503,25.7795139 77.9619834,25.9445661 78.1197481,26.0605487 L78.1629102,26.08434 C78.3206749,26.1765313 78.5736939,26.188427 78.7627139,26.1021835 C79.8923691,25.5921574 80.7273316,25.607027 81.7394074,26.1914009 C81.8376383,26.2479052 81.9373575,26.3103574 82.0400534,26.3772704 C82.1993065,26.4694617 82.4835808,26.4992009 82.6726008,26.4010617 C82.8616208,26.3044096 82.8824577,26.1453052 82.7232046,26.0293226 C82.6190203,25.9609226 82.5088826,25.8925226 82.3898149,25.8241226" id="Fill-29" fill="#5B6AC3" mask="url(#mask-49)"></path>
                        </g>
                        <g id="Group-34">
                            <mask id="mask-51" fill="white">
                                <use xlink:href="#path-50"></use>
                            </mask>
                            <g id="Clip-33"></g>
                            <path d="M45.2618149,45.1945565 C45.2454431,45.1856348 45.2275829,45.176713 45.2082344,45.1692783 C45.0073076,45.077087 44.7230334,45.0964174 44.566757,45.210913 C43.1081772,46.3023391 43.8702107,47.094887 44.790009,47.6257304 C44.9180068,47.6985913 45.0549347,47.7655043 45.1695374,47.8324174 C45.3719526,47.9231217 45.64432,47.9112261 45.8125032,47.8011913 C45.9806864,47.6926435 45.9375243,47.5335391 45.7678528,47.436887 C45.6532501,47.3774087 45.5460891,47.3209043 45.4478583,47.2644 C44.4432242,46.684487 44.4060155,46.1952783 45.2945585,45.5350696 C45.4270214,45.4354435 45.4136263,45.282287 45.2618149,45.1945565" id="Fill-32" fill="#5B6AC3" mask="url(#mask-51)"></path>
                        </g>
                        <g id="Group-37">
                            <mask id="mask-53" fill="white">
                                <use xlink:href="#path-52"></use>
                            </mask>
                            <g id="Clip-36"></g>
                            <path d="M68.3137757,46.5035243 C68.0086646,46.5466461 67.7020651,46.4782461 67.5026267,46.3637504 C67.3761172,46.2894026 67.2793747,46.1986983 67.2481194,46.0946113 C67.1513769,45.8091157 67.465418,45.5280809 67.9610375,45.4730635 C71.9185515,45.01062 74.2805577,43.6381591 75.1944026,41.2620026 C75.307517,40.97502 75.7808112,40.7980722 76.2764307,40.8649852 C76.4505673,40.8872896 76.6023786,40.9378461 76.7214464,41.0062461 C76.93428,41.1281765 77.0369759,41.3095852 76.9640469,41.4924809 C75.9058324,44.2730896 72.9976028,45.9607852 68.3137757,46.5035243 L68.3137757,46.5035243 Z M58.5725463,33.5446983 C58.2123664,33.3380113 58.210878,33.0093939 58.5680812,32.80122 C58.914866,32.6004809 59.4938329,32.594533 59.8525245,32.80122 L71.053822,39.2620461 C73.0080213,40.3906461 70.4510416,42.583907 69.9167251,43.0166113 C69.6324509,43.2545243 69.0639024,43.3035939 68.6531187,43.1385417 L68.5370277,43.0835243 C68.2200098,42.9021157 68.1872662,42.615133 68.4492152,42.4010113 C69.3705018,41.6456374 70.3855543,40.35942 69.7723555,40.0055243 L58.5725463,33.5446983 Z M60.5847911,41.1207417 C59.8495478,41.5474983 58.6588704,41.5430374 57.9295805,41.1207417 C57.1898722,40.6954722 57.176477,40.0055243 57.910232,39.5787678 C58.6454753,39.1534983 59.8361527,39.1594461 60.575861,39.5862026 C61.3051509,40.0055243 61.318546,40.6954722 60.5847911,41.1207417 L60.5847911,41.1207417 Z M53.9289045,39.4330461 C53.8351386,39.7200287 53.3514259,39.9029243 52.8677132,39.8419591 C52.6772049,39.8166809 52.5298585,39.7690983 52.4033491,39.6947504 C52.1905155,39.57282 52.0848429,39.403307 52.1473534,39.2204113 C52.8111561,37.3914548 54.8159591,36.2152722 58.1200889,35.7394461 C58.4400834,35.6918635 58.764543,35.7513417 58.9848183,35.87922 C59.099421,35.9446461 59.1857451,36.0279157 59.2289072,36.1230809 C59.3464866,36.4100635 59.0532823,36.6896113 58.5695696,36.7639591 C55.9590094,37.1416461 54.4468491,38.0189504 53.9289045,39.4330461 L53.9289045,39.4330461 Z M49.5561417,48.5510635 C49.0620106,48.8380461 48.2731869,48.8320983 47.7864975,48.5510635 C47.290878,48.2655678 47.2879013,47.813533 47.7820324,47.5280374 C48.2642568,47.2470026 49.0545689,47.2410548 49.5501884,47.5280374 C50.0368777,47.8075852 50.0398544,48.2715157 49.5561417,48.5510635 L49.5561417,48.5510635 Z M45.8129497,47.8016374 C45.6447665,47.9116722 45.3709107,47.9235678 45.1714723,47.8328635 C45.0553812,47.7659504 44.916965,47.6975504 44.7904555,47.6246896 C43.8706572,47.095333 43.1086237,46.3027852 44.5657151,45.2113591 C44.7234799,45.0953765 45.0077541,45.077533 45.2086809,45.1697243 C45.2280294,45.1756722 45.2458896,45.1845939 45.2622614,45.1950026 C45.4140728,45.2812461 45.4274679,45.4358896 45.295005,45.5340287 C44.406462,46.1957243 44.4421824,46.684933 45.4483048,47.2648461 C45.5465356,47.3198635 45.6522083,47.3778548 45.7682993,47.4358461 C45.9379708,47.5339852 45.9811329,47.6916026 45.8129497,47.8016374 L45.8129497,47.8016374 Z M68.7141409,29.5893939 C69.0326471,29.5403243 69.3571067,29.6012896 69.5788704,29.7291678 C69.6919847,29.7945939 69.7783088,29.8778635 69.8214709,29.9730287 C69.9390503,30.2600113 69.645846,30.5410461 69.1621333,30.61242 C66.5515731,30.9915939 65.0513196,31.8629504 64.5214682,33.2829939 C64.4277023,33.5699765 63.9439896,33.7528722 63.460277,33.691907 C63.2697686,33.6666287 63.1224222,33.6175591 62.9959128,33.5446983 C62.7845675,33.4242548 62.687825,33.24582 62.7503356,33.0629243 C63.4037198,31.2414026 65.4085228,30.06522 68.7141409,29.5893939 L68.7141409,29.5893939 Z M71.1773548,34.9721765 C70.4421115,35.3974461 69.2514341,35.3914983 68.5221442,34.9721765 C67.7839242,34.54542 67.7690408,33.8569591 68.5027957,33.4302026 C69.238039,33.0019591 70.4287164,33.0093939 71.1684247,33.4346635 C71.8977146,33.8554722 71.9111097,34.54542 71.1773548,34.9721765 L71.1773548,34.9721765 Z M78.1919329,25.68762 C80.0925517,24.834107 81.4618307,25.2891157 82.3905591,25.82442 C82.5081385,25.89282 82.6182761,25.96122 82.7224604,26.02962 C82.8817135,26.1456026 82.8608767,26.304707 82.6718566,26.4013591 C82.4843249,26.4994983 82.1985624,26.4682722 82.0407976,26.3775678 C81.9381017,26.3091678 81.8368941,26.2467157 81.7401516,26.1902113 C80.7280758,25.6073243 79.8931133,25.5924548 78.7634581,26.1024809 C78.5744381,26.1887243 78.3214191,26.1768287 78.162166,26.0846374 L78.1204923,26.0593591 C77.9612392,25.9448635 77.9924945,25.7798113 78.1919329,25.68762 L78.1919329,25.68762 Z M83.97416,27.5418548 C84.4608494,27.8214026 84.4727562,28.2793852 83.9801134,28.5648809 C83.4978891,28.8459157 82.6971585,28.8459157 82.2104691,28.5663678 C81.7133613,28.2793852 81.7222914,27.8214026 82.2045157,27.5418548 C82.6986469,27.2548722 83.4770522,27.2548722 83.97416,27.5418548 L83.97416,27.5418548 Z M88.4243168,32.149933 L83.9860668,29.5893939 L84.5218716,29.27862 C86.1903083,28.3091243 86.1813782,26.7730983 84.4906163,25.7976548 L83.4234717,25.1820548 C81.7327098,24.2066113 79.0789876,24.2066113 77.4090626,25.176107 L76.8732577,25.4868809 C66.9430083,26.98722 56.5364879,27.2087765 48.2612801,26.6258896 L45.1610538,24.8385678 L38.293822,20.8773157 L38.2670318,20.8609591 L36.9751468,21.6103852 L37.0078904,21.6282287 L43.8394019,25.5701504 L46.7684683,27.259333 C46.7431664,33.4242548 48.102027,39.0300809 44.2144653,44.4500374 L43.6786605,44.7608113 C42.0102238,45.72882 42.0072471,47.2722809 43.698009,48.2462374 L44.7651536,48.8618374 C46.4559155,49.8372809 49.1215445,49.831333 50.7899812,48.8618374 L51.325786,48.5510635 L55.764036,51.1116026 C60.3585624,53.7613591 67.2257942,54.3353243 72.7847693,52.8320113 C72.835373,52.7963243 72.8949069,52.7621243 72.9618825,52.7323852 C74.8371994,51.9561939 76.4654507,51.2588113 77.9478441,50.5718374 L86.4224904,45.6514983 C86.8645294,45.3318026 87.3154984,44.9972374 87.7783743,44.6448287 C87.9539992,44.5050548 88.23232,44.4351678 88.5136176,44.4366548 C89.1059796,44.0916809 89.6373193,43.7244026 90.1076369,43.3392809 C94.2497059,39.947533 93.6841341,35.1833243 88.4243168,32.149933 L88.4243168,32.149933 Z" id="Fill-35" fill="#C6B8E5" mask="url(#mask-53)"></path>
                        </g>
                    </g>
                    <g id="Group-41" transform="translate(179.694834, 162.817278)">
                        <mask id="mask-55" fill="white">
                            <use xlink:href="#path-54"></use>
                        </mask>
                        <g id="Clip-40"></g>
                        <path d="M4.01838735,0.924886957 C3.27867902,0.498130435 2.08800164,0.492182609 1.35275835,0.91893913 C0.619003407,1.34569565 0.633886875,2.03415652 1.3735952,2.46091304 C2.10139676,2.88172174 3.29207414,2.88766957 4.02731743,2.46091304 C4.76256072,2.03415652 4.74767725,1.34569565 4.01838735,0.924886957" id="Fill-39" fill="#5B6AC3" mask="url(#mask-55)"></path>
                    </g>
                    <g id="Group-44" transform="translate(190.113262, 156.869452)">
                        <mask id="mask-57" fill="white">
                            <use xlink:href="#path-56"></use>
                        </mask>
                        <g id="Clip-43"></g>
                        <path d="M4.19267275,0.722363478 C3.45296443,0.295606957 2.26228704,0.28965913 1.52704375,0.716415652 C0.79328881,1.14317217 0.808172277,1.83163304 1.54639226,2.25838957 C2.27568216,2.67919826 3.46635955,2.68514609 4.20160283,2.25838957 C4.93684612,1.83163304 4.92196266,1.14317217 4.19267275,0.722363478" id="Fill-42" fill="#5B6AC3" mask="url(#mask-57)"></path>
                    </g>
                    <g id="Group-51" transform="translate(123.137658, 124.156409)">
                        <g id="Group-47">
                            <mask id="mask-59" fill="white">
                                <use xlink:href="#path-58"></use>
                            </mask>
                            <g id="Clip-46"></g>
                            <path d="M58.9854137,35.87922 C58.7651383,35.7513417 58.4406788,35.6918635 58.1206842,35.7394461 C54.8165545,36.2152722 52.8117514,37.3914548 52.1479488,39.2204113 C52.0854382,39.403307 52.1911108,39.57282 52.402456,39.6947504 C52.5304539,39.7690983 52.6778002,39.8166809 52.8668202,39.8419591 C53.3520213,39.9029243 53.835734,39.7200287 53.9294998,39.4330461 C54.4474445,38.0189504 55.9581164,37.1416461 58.5686766,36.7639591 C59.0523893,36.6896113 59.3470819,36.4100635 59.2295025,36.1230809 C59.1848521,36.0279157 59.098528,35.9446461 58.9854137,35.87922" id="Fill-45" fill="#5B6AC3" mask="url(#mask-59)"></path>
                        </g>
                        <g id="Group-50" transform="translate(1.000000, 0.000000)">
                            <mask id="mask-61" fill="white">
                                <use xlink:href="#path-60"></use>
                            </mask>
                            <g id="Clip-49"></g>
                            <path d="M68.578275,29.7288704 C68.3579997,29.6024791 68.0335401,29.5415139 67.7135456,29.5890965 C64.4094158,30.0649226 62.4046128,31.2411052 61.7512286,33.0641139 C61.688718,33.2470096 61.7839722,33.4224704 61.9953174,33.5444009 C62.1218269,33.6187487 62.2706616,33.6663313 62.4596816,33.6916096 C62.9448826,33.7525748 63.4285953,33.5696791 63.5208728,33.2826965 C64.0507243,31.862653 65.5509778,30.9912965 68.161538,30.6136096 C68.6452506,30.5407487 68.9399433,30.2597139 68.8223639,29.9742183 C68.7777135,29.8775661 68.6913894,29.7942965 68.578275,29.7288704" id="Fill-48" fill="#5B6AC3" mask="url(#mask-61)"></path>
                        </g>
                    </g>
                    <g id="Group-78" transform="translate(26.395121, 9.173800)">
                        <path d="M172.434048,167.880492 C171.898243,168.107997 171.34309,168.341449 170.762635,168.580849 C170.405432,168.72657 169.899394,168.702779 169.592794,168.525831 L169.48861,168.45297 C169.248986,168.253718 169.274288,167.997962 169.527307,167.815066 C163.968332,169.318379 157.1011,168.744414 152.506574,166.094657 L148.068324,163.534118 L147.532519,163.844892 C145.864082,164.814388 143.198453,164.820336 141.507691,163.844892 L140.440547,163.229292 C138.749785,162.253849 138.752762,160.711875 140.421198,159.742379 L140.957003,159.431605 C144.844565,154.011649 143.485704,148.40731 143.511006,142.242388 L140.58194,140.553205 L133.750428,136.611283 C126.246184,141.134605 120.529444,147.031875 119.65132,152.258527 C118.645197,158.265831 132.745794,167.846292 145.334231,175.105614 C153.596044,179.87131 161.207449,183.63777 163.462294,184.736631 C165.919555,178.81557 176.452584,170.707197 176.452584,170.707197 L176.896112,170.452927 L172.434048,167.880492 Z" id="Fill-52" fill="#5B6AC3"></path>
                        <path d="M157.606543,129.194196 C150.264528,129.194196 141.990809,131.9183 135.035764,135.858735 L141.904485,139.819987 L145.004711,141.608796 C153.279919,142.191683 163.684951,141.970126 173.616689,140.469787 L174.152493,140.159013 C175.82093,139.189517 178.474652,139.189517 180.166903,140.164961 L181.234047,140.780561 C182.924809,141.756004 182.933739,143.29203 181.263814,144.261526 L180.728009,144.5723 L185.166259,147.131352 C190.426077,150.16623 190.993137,154.930439 186.849579,158.322187 L192.420461,161.5355 C200.027401,156.690996 208.89646,153.522291 215.983967,152.557257 C216.375402,152.436813 216.740047,152.337187 217.077902,152.258378 C217.077902,152.258378 171.963135,129.188248 157.606543,129.194196" id="Fill-54" fill="#5B6AC3"></path>
                        <path d="M159.453879,208.339836 L90.1132926,168.343679 C88.1680234,167.222514 85.0082633,167.222514 83.0778776,168.343679 C81.1460035,169.464844 81.1668404,171.287853 83.1106212,172.409018 L152.451207,212.405175 C154.405407,213.533775 157.54433,213.533775 159.476204,212.411123 C161.408078,211.289957 161.408078,209.466949 159.453879,208.339836" id="Fill-56" fill="#E3ECFF"></path>
                        <path d="M277.578303,31.0427235 C275.634523,29.9215583 272.495599,29.9215583 270.553307,31.0486713 L76.5562399,143.682654 C74.6243658,144.803819 74.6243658,146.626828 76.5681467,147.747993 C78.5119275,148.869158 81.6612692,148.86321 83.5931432,147.742045 L277.59021,35.1080626 C279.532503,33.9809496 279.523573,32.1638887 277.578303,31.0427235" id="Fill-58" fill="#E3ECFF"></path>
                        <path d="M297.468272,42.9892296 C295.514072,41.8621165 292.375149,41.8621165 290.443275,42.9832817 L188.168552,102.363403 C186.236678,103.484569 186.247097,105.300143 188.201296,106.428743 C190.146565,107.549908 193.285488,107.549908 195.217362,106.428743 L297.490597,47.0486209 C299.422471,45.9274557 299.412052,44.1103948 297.468272,42.9892296" id="Fill-60" fill="#E3ECFF"></path>
                        <path d="M317.756372,54.6917261 C315.812592,53.5705609 312.673668,53.5705609 310.741794,54.6917261 L208.467072,114.071848 C206.535197,115.193013 206.545616,117.010074 208.490885,118.131239 C210.434666,119.252404 213.584008,119.258352 215.515882,118.137187 L317.789116,58.7570652 C319.72099,57.6359 319.701642,55.8128913 317.756372,54.6917261" id="Fill-62" fill="#E3ECFF"></path>
                        <path d="M354.286355,75.7624948 C352.342574,74.6413296 349.203651,74.6413296 347.271776,75.7624948 L312.795713,95.7799035 C310.863839,96.9010687 310.874257,98.7181296 312.818038,99.8392948 C314.763307,100.96046 317.912649,100.966408 319.843034,99.8452426 L354.319098,79.8278339 C356.250972,78.7066687 356.231624,76.88366 354.286355,75.7624948" id="Fill-64" fill="#E3ECFF"></path>
                        <path d="M375.383372,85.1249678 C373.439591,84.0038026 370.290249,84.0097504 368.358375,85.1309157 L172.346087,198.935133 C170.414213,200.056298 170.412725,201.879307 172.357994,203.000472 C174.301775,204.121637 177.461535,204.121637 179.393409,203.000472 L375.407185,89.1962548 C377.337571,88.0750896 377.328641,86.246133 375.383372,85.1249678" id="Fill-66" fill="#E3ECFF"></path>
                        <path d="M228.430862,148.418016 L171.613225,115.644007 C167.015722,112.992763 159.559105,112.992763 154.992857,115.644007 L98.5324236,148.423963 C93.9661758,151.076694 93.9899894,155.390355 98.5860041,158.043085 L155.405129,190.817094 C160.011562,193.474285 167.469668,193.474285 172.035915,190.823042 L228.494861,158.041598 C233.062597,155.390355 233.038783,151.075207 228.430862,148.418016 M157.966574,118.39339 L158.859582,117.874442 C161.304936,116.454398 165.287751,116.454398 167.759895,117.881877 L224.57902,150.654398 C227.051164,152.08039 227.064559,154.385172 224.617717,155.805216 L168.157284,188.585172 C165.701512,190.011163 161.720184,190.011163 159.24804,188.585172 L158.359497,188.073659 L103.31597,156.324163 L102.428915,155.81265 C99.9567714,154.385172 99.9433763,152.081877 102.399148,150.655885 L103.281738,150.142885 L157.966574,118.39339" id="Fill-68" fill="#FFFFFF"></path>
                        <path d="M267.396077,17.212987 L239.794687,1.29214348 C237.100779,-0.261726087 232.76076,-0.261726087 230.084713,1.29214348 L2.65044787,133.33983 C-0.0270879106,134.8937 -0.01369279,137.40517 2.68170315,138.959039 L30.2830934,154.879883 C32.9665825,156.427804 37.31702,156.433752 39.9930675,154.879883 L267.427332,22.8321957 C270.104868,21.2783261 270.079566,18.7609087 267.396077,17.212987" id="Fill-70" fill="#7DACEF"></path>
                        <path d="M48.5713027,127.432152 C42.2949445,123.811413 32.1518615,123.817361 25.9156887,127.4381 C19.6795159,131.058839 19.7122595,136.921909 25.990106,140.542648 C32.2664642,144.163387 42.4095472,144.169335 48.6442317,140.548596 C54.8804045,136.927857 54.8476609,131.052891 48.5713027,127.432152" id="Fill-72" fill="#5B6AC3"></path>
                        <path d="M234.284083,13.7497165 C232.340302,12.6285513 229.201379,12.6285513 227.269505,13.7497165 L52.0003048,115.509586 C50.069919,116.630751 50.069919,118.45376 52.0136999,119.574925 C53.9574807,120.69609 57.1068224,120.690143 59.0386965,119.568977 L234.307896,17.8091078 C236.238282,16.6879426 236.227864,14.8708817 234.284083,13.7497165" id="Fill-74" fill="#5B6AC3"></path>
                        <path d="M196.475015,49.7908661 C194.529746,48.6697009 191.390823,48.6697009 189.460437,49.7908661 L64.1728974,122.531292 C62.2425117,123.652457 62.2425117,125.475466 64.1862925,126.596631 C66.1300733,127.717797 69.2898334,127.717797 71.2217075,126.596631 L196.507759,53.8562052 C198.439633,52.73504 198.418796,50.9120313 196.475015,49.7908661" id="Fill-76" fill="#6E8FDC"></path>
                    </g>
                </g>
                <g id="check" transform="translate(377.000000, 128.000000)">
                    <g id="Group-3" transform="translate(0.000000, 0.042430)">
                        <path d="M75.3375121,16.4183281 C58.0237871,6.4181069 30.0432093,6.41907858 12.8421486,16.4196237 C-4.35858841,26.4201688 -4.26955768,42.6352644 13.0438437,52.6354857 C30.3591875,62.6373264 58.3404127,62.6357069 75.5411497,52.6351618 C92.7422104,42.6346166 92.652856,26.419845 75.3375121,16.4183281" id="Fill-1" fill="#220066" opacity="0.157459077" filter="url(#filter-62)"></path>
                        <path d="M76.9542786,7.78116 C59.6405535,-2.21906124 31.6599758,-2.21808956 14.458915,7.78245558 C-2.74182194,17.7830007 -2.65279121,33.9980963 14.6606101,43.9983175 C31.9759539,54.0001582 59.9571792,53.9985388 77.1579162,43.9979936 C94.3589769,33.9974485 94.2696224,17.7826768 76.9542786,7.78116" id="Fill-1" fill="#FFFFFF"></path>
                    </g>
                    <path d="M59.8395939,17.7739641 C52.0385595,13.2679535 39.4337506,13.2679535 31.6835446,17.7739641 C23.9333387,22.2799747 23.9744547,29.5844278 31.7751654,34.0904384 C39.5761998,38.596449 52.1832749,38.5977446 59.9334808,34.0914101 C67.6836868,29.5857234 67.6406283,22.2799747 59.8395939,17.7739641" id="Fill-4" fill="#6FCAA8"></path>
                    <path d="M51.2450852,20.9915575 C50.8371626,20.7560867 50.3324393,20.5588354 49.7383615,20.4007752 C48.0649075,19.9625469 46.3273515,20.1750212 44.9349108,20.9847558 C44.2488886,21.3284071 43.8170086,21.8741681 43.8658946,22.5093239 C43.8953557,23.7164761 43.9494216,24.9113204 44.0242074,26.1184726 C44.0501073,26.6878779 40.6837744,26.7286885 39.7494374,27.2718584 C38.2501599,28.1434566 38.9860393,29.0833965 39.9514562,29.6411416 C40.1907061,29.7791204 40.4445246,29.8941027 40.6815082,29.9786389 C41.3914878,30.2316 47.8013766,30.2565398 48.670964,30.2565398 C51.0524551,30.2565398 52.7631401,29.2621858 52.7327078,27.8425593 C52.6776706,26.1184726 52.5523801,24.4063699 52.4750043,22.6955628 C52.4254708,21.9972478 52.0013608,21.4284903 51.2450852,20.9915575" id="Fill-6" fill="#108E87"></path>
                </g>
            </g>
        </g>
    </g>
</svg>