<svg width="69" height="69" viewBox="0 0 69 69" fill="none" xmlns="http://www.w3.org/2000/svg">
<path id="Vector" d="M48.1656 16.8735H46.4072C46.1431 16.8687 45.8806 16.9168 45.6353 17.015C45.39 17.1132 45.1669 17.2594 44.9789 17.4451C44.6002 17.8205 44.3882 18.3313 44.3969 18.863V29.648C42.6375 28.1048 40.3777 27.2528 38.0374 27.2501C32.3313 27.2762 27.6955 32.3568 27.6955 38.5043C27.6955 44.6517 32.3192 49.8279 38.027 49.8279C40.3801 49.8182 42.6522 48.9677 44.4334 47.4301L46.2143 49.4195H48.1656C48.4289 49.4262 48.6909 49.3794 48.9356 49.2819C49.1804 49.1845 49.4028 49.0385 49.5896 48.8528C49.7763 48.667 49.9235 48.4453 50.0222 48.2011C50.1209 47.9568 50.169 47.6951 50.1638 47.4318V18.863C50.1742 18.333 49.9657 17.8205 49.5904 17.4451C49.4034 17.2592 49.1809 17.1128 48.9361 17.0146C48.6913 16.9164 48.4293 16.8684 48.1656 16.8735ZM39.0139 44.8811C36.0045 44.8811 33.6084 42.0645 33.6084 38.5894C33.6084 35.1143 36.0167 32.3099 39.0139 32.3099C42.0129 32.3099 44.3725 35.1247 44.3725 38.5894C44.3725 42.0523 41.9643 44.8811 39.0139 44.8811ZM21.35 25.5022C22.0234 25.5055 22.6827 25.3092 23.2446 24.9381C23.8065 24.567 24.2458 24.0377 24.5071 23.4171C25.0388 22.1487 24.7504 20.6891 23.7774 19.7161C23.2999 19.2401 22.6923 18.9158 22.031 18.7841C21.3697 18.6524 20.6842 18.7191 20.0607 18.9759C19.4385 19.2308 18.9062 19.6649 18.5312 20.223C18.1562 20.7811 17.9556 21.4381 17.9548 22.1105C17.9548 23.9783 19.4734 25.4952 21.35 25.5022ZM20.4708 49.3848H22.3022C22.8339 49.3935 23.3482 49.1884 23.727 48.8114C23.9131 48.6262 24.0599 48.4053 24.1584 48.162C24.257 47.9186 24.3053 47.6578 24.3004 47.3953V29.707C24.3052 29.4438 24.2569 29.1822 24.1583 28.938C24.0598 28.6938 23.9131 28.472 23.727 28.2857C23.54 28.0992 23.3177 27.9519 23.073 27.8525C22.8283 27.7531 22.5662 27.7037 22.3022 27.7071H20.4691C20.205 27.7037 19.9429 27.7531 19.6982 27.8525C19.4535 27.9519 19.2312 28.0992 19.0443 28.2857C18.8579 28.4722 18.7111 28.6943 18.6125 28.9388C18.514 29.1833 18.4658 29.4452 18.4709 29.7088V47.3953C18.4605 47.9253 18.6672 48.4378 19.0443 48.8131C19.4213 49.1885 19.9356 49.3935 20.4691 49.3848M65.3952 68.9409C66.2751 68.9402 67.1197 68.5947 67.7479 67.9785C68.3761 67.3623 68.7379 66.5246 68.7556 65.6448C68.7654 65.1978 68.6817 64.7537 68.5096 64.341C68.3375 63.9284 68.081 63.5563 67.7565 63.2487L62.94 58.5278C62.6293 58.2034 62.2551 57.9465 61.8408 57.7731C61.4265 57.5998 60.9809 57.5136 60.5318 57.52C59.6528 57.5238 58.8099 57.8703 58.1824 58.4859C57.5549 59.1014 57.1921 59.9374 57.1713 60.8161C57.154 61.7214 57.5206 62.5919 58.1826 63.214L62.9261 68.0061C63.5638 68.6386 64.436 68.9809 65.3361 68.9531M60.6516 11.362C61.5569 11.3741 62.4292 11.0145 63.0599 10.3681L67.8764 5.63327C68.5193 5.02513 68.879 4.17894 68.8755 3.298C68.8677 2.8527 68.7713 2.41341 68.5916 2.00586C68.412 1.5983 68.1529 1.23068 67.8295 0.924511C67.505 0.617714 67.123 0.378223 66.7055 0.219864C66.288 0.0615057 65.8432 -0.0125844 65.3969 0.00187134C64.9511 -0.0102652 64.5075 0.0685175 64.0932 0.233416C63.6789 0.398314 63.3025 0.645873 62.9869 0.960999L58.2434 5.75143C57.9147 6.0567 57.6545 6.42832 57.4802 6.84169C57.3058 7.25506 57.2213 7.70075 57.2321 8.14925C57.2534 9.0274 57.6161 9.86271 58.2432 10.4778C58.8703 11.0929 59.7124 11.4394 60.5908 11.4436M8.10465 11.362C8.98365 11.3582 9.8265 11.0116 10.454 10.3961C11.0816 9.78061 11.4443 8.94461 11.4651 8.06584C11.4671 7.62783 11.3783 7.19414 11.2043 6.79219C11.0302 6.39024 10.7747 6.02875 10.4538 5.73058L5.71031 0.960999C5.40187 0.652784 5.03513 0.40908 4.6315 0.244108C4.22787 0.0791357 3.79543 -0.00380203 3.3594 0.000133791C2.47947 0.00132783 1.63503 0.347264 1.00716 0.963763C0.379295 1.58026 0.0179888 2.41824 0.00071813 3.298C-0.0183949 4.20153 0.344753 5.07031 1.00155 5.69409L5.81804 10.4863C6.44877 11.1344 7.31928 11.494 8.22628 11.4819M3.36114 68.9409C3.80589 68.9554 4.24891 68.8789 4.66303 68.7161C5.07715 68.5532 5.45364 68.3075 5.76939 67.994L10.5129 63.2001C11.1766 62.5798 11.5433 61.7092 11.5242 60.804C11.5029 59.9261 11.1405 59.0911 10.5138 58.476C9.88702 57.861 9.04531 57.5143 8.1672 57.5096C7.27932 57.5131 6.43139 57.8745 5.81977 58.5156L1.00155 63.3078C0.344753 63.9333 -0.0183949 64.8021 0.00071813 65.7056C0.0188924 66.5851 0.380834 67.4224 1.00898 68.0382C1.63712 68.654 2.48149 68.9993 3.36114 69" fill="#5500FF"/>
</svg>
